<svg width="1280" height="832" viewBox="0 0 1280 832" fill="none" xmlns="http://www.w3.org/2000/svg">
<g clip-path="url(#clip0_13_5009)">
<path d="M1280 0H0V832H1280V0Z" fill="#00101A"/>
<path fill-rule="evenodd" clip-rule="evenodd" d="M537.825 832H0V753.998C495.933 709.05 167.242 522.564 352.852 310.466C513.731 126.635 858.322 296.823 864.184 0H1280V469.596C1194.81 460.176 1098.98 463.617 995.231 490.013C734.932 556.237 745.472 737.814 537.825 832Z" fill="#0D1E2A"/>
<path fill-rule="evenodd" clip-rule="evenodd" d="M976.983 265.794C979.716 265.794 981.949 264.506 981.949 262.925C981.949 261.345 979.719 260.055 976.983 260.055C974.246 260.055 972.017 261.343 972.017 262.925C972.017 264.506 974.243 265.794 976.983 265.794Z" fill="#899095"/>
<path fill-rule="evenodd" clip-rule="evenodd" d="M885.61 43.1991C888.347 43.1991 890.579 41.9112 890.579 40.3287C890.579 38.7496 888.35 37.46 885.61 37.46C882.877 37.46 880.644 38.7479 880.644 40.3287C880.644 41.9112 882.877 43.1991 885.61 43.1991Z" fill="#899095"/>
<path fill-rule="evenodd" clip-rule="evenodd" d="M444.648 213.015C447.384 213.015 449.617 211.727 449.617 210.145C449.617 208.566 447.384 207.276 444.648 207.276C441.911 207.276 439.682 208.564 439.682 210.145C439.685 211.726 441.914 213.015 444.648 213.015Z" fill="#899095"/>
<path fill-rule="evenodd" clip-rule="evenodd" d="M476.432 405.776C479.166 405.776 481.398 404.488 481.398 402.908C481.398 401.327 479.169 400.037 476.432 400.037C473.695 400.037 471.466 401.325 471.466 402.908C471.466 404.488 473.698 405.776 476.432 405.776Z" fill="#899095"/>
<path fill-rule="evenodd" clip-rule="evenodd" d="M118.894 559.528C121.628 559.528 123.861 558.24 123.861 556.66C123.861 555.08 121.631 553.791 118.894 553.791C116.158 553.791 113.928 555.079 113.928 556.66C113.928 558.239 116.161 559.528 118.894 559.528Z" fill="#899095"/>
<path fill-rule="evenodd" clip-rule="evenodd" d="M984.925 534.286C987.658 534.286 989.891 532.996 989.891 531.417C989.891 529.838 987.661 528.546 984.925 528.546C982.191 528.546 979.958 529.836 979.958 531.417C979.958 532.998 982.191 534.286 984.925 534.286Z" fill="#899095"/>
<path fill-rule="evenodd" clip-rule="evenodd" d="M547.94 754.587C550.677 754.587 552.906 753.299 552.906 751.717C552.906 750.138 550.677 748.848 547.94 748.848C545.207 748.848 542.974 750.136 542.974 751.717C542.974 753.298 545.204 754.587 547.94 754.587Z" fill="#899095"/>
<path fill-rule="evenodd" clip-rule="evenodd" d="M95.0633 50.083C97.7999 50.083 100.029 48.7951 100.029 47.2143C100.029 45.6335 97.7999 44.3439 95.0633 44.3439C92.3238 44.3439 90.0942 45.6318 90.0942 47.2143C90.0942 48.7934 92.3238 50.083 95.0633 50.083Z" fill="#899095"/>
<path fill-rule="evenodd" clip-rule="evenodd" d="M1247.12 38.6082C1249.85 38.6082 1252.09 37.3202 1252.09 35.7394C1252.09 34.1586 1249.86 32.869 1247.12 32.869C1244.38 32.869 1242.15 34.157 1242.15 35.7394C1242.15 37.3202 1244.38 38.6082 1247.12 38.6082Z" fill="#899095"/>
<path fill-rule="evenodd" clip-rule="evenodd" d="M837.939 552.643C840.673 552.643 842.905 551.355 842.905 549.774C842.905 548.195 840.675 546.905 837.939 546.905C835.205 546.905 832.973 548.193 832.973 549.774C832.973 551.355 835.205 552.643 837.939 552.643Z" fill="#899095"/>
<path fill-rule="evenodd" clip-rule="evenodd" d="M958.858 610.302C960.359 610.302 961.583 609.593 961.583 608.724C961.583 607.856 960.356 607.147 958.858 607.147C957.355 607.147 956.127 607.856 956.127 608.724C956.125 609.593 957.352 610.302 958.858 610.302Z" fill="#899095"/>
<path fill-rule="evenodd" clip-rule="evenodd" d="M1252.83 541.457C1254.33 541.457 1255.56 540.748 1255.56 539.88C1255.56 539.013 1254.33 538.302 1252.83 538.302C1251.32 538.302 1250.1 539.013 1250.1 539.88C1250.1 540.748 1251.32 541.457 1252.83 541.457Z" fill="#899095"/>
<path fill-rule="evenodd" clip-rule="evenodd" d="M617.21 782.409C618.714 782.409 619.941 781.702 619.941 780.832C619.941 779.965 618.716 779.256 617.21 779.256C615.709 779.256 614.482 779.967 614.482 780.832C614.482 781.702 615.706 782.409 617.21 782.409Z" fill="#899095"/>
<path fill-rule="evenodd" clip-rule="evenodd" d="M851.596 780.115C853.097 780.115 854.321 779.406 854.321 778.537C854.321 777.67 853.094 776.96 851.596 776.96C850.092 776.96 848.865 777.672 848.865 778.537C848.865 779.407 850.092 780.115 851.596 780.115Z" fill="#899095"/>
<path fill-rule="evenodd" clip-rule="evenodd" d="M589.401 520.802C590.907 520.802 592.132 520.095 592.132 519.226C592.132 518.359 590.904 517.649 589.401 517.649C587.9 517.649 586.673 518.359 586.673 519.226C586.673 520.097 587.9 520.802 589.401 520.802Z" fill="#899095"/>
<path fill-rule="evenodd" clip-rule="evenodd" d="M494.058 651.607C495.562 651.607 496.789 650.898 496.789 650.03C496.789 649.16 495.562 648.452 494.058 648.452C492.558 648.452 491.331 649.161 491.331 650.03C491.331 650.898 492.558 651.607 494.058 651.607Z" fill="#899095"/>
<path fill-rule="evenodd" clip-rule="evenodd" d="M243.783 541.457C245.286 541.457 246.513 540.748 246.513 539.88C246.513 539.013 245.289 538.302 243.783 538.302C242.282 538.302 241.055 539.013 241.055 539.88C241.058 540.748 242.282 541.457 243.783 541.457Z" fill="#899095"/>
<path fill-rule="evenodd" clip-rule="evenodd" d="M61.0434 674.556C62.547 674.556 63.7742 673.847 63.7742 672.978C63.7742 672.109 62.5499 671.401 61.0434 671.401C59.5426 671.401 58.3154 672.109 58.3154 672.978C58.3154 673.847 59.5426 674.556 61.0434 674.556Z" fill="#899095"/>
<path fill-rule="evenodd" clip-rule="evenodd" d="M390.768 789.295C392.275 789.295 393.499 788.586 393.499 787.718C393.499 786.851 392.275 786.14 390.768 786.14C389.268 786.14 388.041 786.851 388.041 787.718C388.041 788.586 389.268 789.295 390.768 789.295Z" fill="#899095"/>
<path fill-rule="evenodd" clip-rule="evenodd" d="M53.0985 458.843C54.6051 458.843 55.8293 458.136 55.8293 457.267C55.8293 456.399 54.6022 455.69 53.0985 455.69C51.5977 455.69 50.3706 456.4 50.3706 457.267C50.3706 458.136 51.5977 458.843 53.0985 458.843Z" fill="#899095"/>
<path fill-rule="evenodd" clip-rule="evenodd" d="M355.017 270.671C356.524 270.671 357.748 269.961 357.748 269.094C357.748 268.227 356.521 267.518 355.017 267.518C353.517 267.518 352.29 268.227 352.29 269.094C352.29 269.961 353.517 270.671 355.017 270.671Z" fill="#899095"/>
<path fill-rule="evenodd" clip-rule="evenodd" d="M120.632 240.837C122.135 240.837 123.363 240.128 123.363 239.26C123.363 238.393 122.135 237.682 120.632 237.682C119.131 237.682 117.904 238.393 117.904 239.26C117.907 240.13 119.131 240.837 120.632 240.837Z" fill="#899095"/>
<path fill-rule="evenodd" clip-rule="evenodd" d="M100.77 107.739C102.276 107.739 103.501 107.03 103.501 106.163C103.501 105.295 102.276 104.586 100.77 104.586C99.2691 104.586 98.042 105.295 98.042 106.163C98.042 107.03 99.2691 107.739 100.77 107.739Z" fill="#899095"/>
<path fill-rule="evenodd" clip-rule="evenodd" d="M327.208 36.5997C328.712 36.5997 329.939 35.8908 329.939 35.0239C329.939 34.1569 328.714 33.4464 327.208 33.4464C325.707 33.4464 324.48 34.1569 324.48 35.0239C324.48 35.8908 325.707 36.5997 327.208 36.5997Z" fill="#899095"/>
<path fill-rule="evenodd" clip-rule="evenodd" d="M517.893 112.328C519.399 112.328 520.624 111.619 520.624 110.753C520.624 109.886 519.399 109.175 517.893 109.175C516.392 109.175 515.165 109.886 515.165 110.753C515.165 111.619 516.392 112.328 517.893 112.328Z" fill="#899095"/>
<path fill-rule="evenodd" clip-rule="evenodd" d="M641.044 38.8944C642.547 38.8944 643.775 38.1872 643.775 37.3186C643.775 36.4516 642.547 35.7411 641.044 35.7411C639.543 35.7411 638.316 36.4516 638.316 37.3186C638.316 38.1872 639.54 38.8944 641.044 38.8944Z" fill="#899095"/>
<path fill-rule="evenodd" clip-rule="evenodd" d="M593.373 275.259C594.88 275.259 596.104 274.552 596.104 273.683C596.104 272.816 594.88 272.106 593.373 272.106C591.872 272.106 590.645 272.816 590.645 273.683C590.645 274.552 591.872 275.259 593.373 275.259Z" fill="#899095"/>
<path fill-rule="evenodd" clip-rule="evenodd" d="M847.618 286.732C849.122 286.732 850.349 286.023 850.349 285.156C850.349 284.289 849.122 283.579 847.618 283.579C846.114 283.579 844.893 284.289 844.893 285.156C844.893 286.025 846.117 286.732 847.618 286.732Z" fill="#899095"/>
<path fill-rule="evenodd" clip-rule="evenodd" d="M970.769 160.519C972.273 160.519 973.5 159.811 973.5 158.944C973.5 158.077 972.273 157.366 970.769 157.366C969.268 157.366 968.041 158.077 968.041 158.944C968.041 159.811 969.268 160.519 970.769 160.519Z" fill="#899095"/>
<path fill-rule="evenodd" clip-rule="evenodd" d="M891.32 84.7909C892.82 84.7909 894.048 84.082 894.048 83.215C894.048 82.3464 892.82 81.6376 891.32 81.6376C889.816 81.6376 888.592 82.3464 888.592 83.215C888.592 84.082 889.816 84.7909 891.32 84.7909Z" fill="#899095"/>
<path fill-rule="evenodd" clip-rule="evenodd" d="M1121.73 34.305C1123.23 34.305 1124.46 33.5961 1124.46 32.7292C1124.46 31.8606 1123.23 31.1517 1121.73 31.1517C1120.23 31.1517 1119 31.8606 1119 32.7292C1119 33.5961 1120.23 34.305 1121.73 34.305Z" fill="#899095"/>
<path fill-rule="evenodd" clip-rule="evenodd" d="M1228.99 286.732C1230.49 286.732 1231.72 286.023 1231.72 285.156C1231.72 284.289 1230.49 283.579 1228.99 283.579C1227.49 283.579 1226.26 284.289 1226.26 285.156C1226.26 286.025 1227.49 286.732 1228.99 286.732Z" fill="#899095"/>
<path fill-rule="evenodd" clip-rule="evenodd" d="M915.154 376.23C916.657 376.23 917.885 375.523 917.885 374.655C917.885 373.788 916.657 373.077 915.154 373.077C913.65 373.077 912.429 373.788 912.429 374.655C912.429 375.523 913.65 376.23 915.154 376.23Z" fill="#899095"/>
<path fill-rule="evenodd" clip-rule="evenodd" d="M1117.76 534.573C1119.26 534.573 1120.49 533.865 1120.49 532.996C1120.49 532.127 1119.26 531.418 1117.76 531.418C1116.26 531.418 1115.03 532.127 1115.03 532.996C1115.03 533.865 1116.25 534.573 1117.76 534.573Z" fill="#899095"/>
<path fill-rule="evenodd" clip-rule="evenodd" d="M1101.87 798.475C1103.37 798.475 1104.6 797.767 1104.6 796.898C1104.6 796.029 1103.37 795.321 1101.87 795.321C1100.36 795.321 1099.14 796.029 1099.14 796.898C1099.14 797.767 1100.36 798.475 1101.87 798.475Z" fill="#899095"/>
<path fill-rule="evenodd" clip-rule="evenodd" d="M480.817 63.7694C480.817 62.9057 482.032 62.2052 483.527 62.2052C485.025 62.2052 486.238 62.9074 486.238 63.7694V65.6563H489.505C490.997 65.6563 492.212 66.3585 492.212 67.2222C492.212 68.0874 491 68.788 489.505 68.788H486.238V70.675C486.238 71.5402 485.025 72.2408 483.527 72.2408C482.029 72.2408 480.817 71.5386 480.817 70.675V68.7896H477.55C476.052 68.7896 474.842 68.0874 474.842 67.2238C474.842 66.3585 476.052 65.658 477.55 65.658H480.817V63.7694Z" fill="white"/>
<path fill-rule="evenodd" clip-rule="evenodd" d="M1072.35 288.732C1072.35 287.867 1073.56 287.167 1075.06 287.167C1076.56 287.167 1077.76 287.869 1077.76 288.732V290.619H1081.04C1082.53 290.619 1083.74 291.321 1083.74 292.185C1083.74 293.049 1082.53 293.749 1081.04 293.749H1077.76V295.636C1077.76 296.502 1076.55 297.202 1075.06 297.202C1073.56 297.202 1072.35 296.502 1072.35 295.636V293.749H1069.08C1067.58 293.749 1066.37 293.047 1066.37 292.185C1066.37 291.32 1067.58 290.619 1069.08 290.619H1072.35V288.732Z" fill="white"/>
<path fill-rule="evenodd" clip-rule="evenodd" d="M504.265 548.045C504.265 547.18 505.478 546.476 506.976 546.476C508.471 546.476 509.683 547.18 509.683 548.045V549.932H512.95C514.448 549.932 515.661 550.631 515.661 551.494C515.661 552.361 514.448 553.06 512.95 553.06H509.683V554.946C509.683 555.811 508.471 556.515 506.976 556.515C505.478 556.515 504.265 555.809 504.265 554.946V553.06H500.998C499.5 553.06 498.288 552.36 498.288 551.494C498.288 550.629 499.5 549.932 500.998 549.932H504.265V548.045Z" fill="white"/>
<path fill-rule="evenodd" clip-rule="evenodd" d="M917.416 761.461C917.416 760.594 918.631 759.892 920.126 759.892C921.621 759.892 922.834 760.596 922.834 761.461V763.348H926.101C927.599 763.348 928.814 764.047 928.814 764.911C928.814 765.778 927.599 766.477 926.101 766.477H922.834V768.362C922.834 769.229 921.619 769.931 920.126 769.931C918.628 769.931 917.416 769.227 917.416 768.362V766.477H914.149C912.651 766.477 911.438 765.776 911.438 764.911C911.438 764.045 912.654 763.348 914.149 763.348H917.416V761.461Z" fill="white"/>
<path fill-rule="evenodd" clip-rule="evenodd" d="M114.951 293.321C114.951 292.454 116.164 291.756 117.662 291.756C119.157 291.756 120.373 292.456 120.373 293.321V295.208H123.639C125.137 295.208 126.35 295.911 126.35 296.773C126.35 297.64 125.137 298.337 123.639 298.337H120.373V300.225C120.373 301.091 119.157 301.791 117.662 301.791C116.167 301.791 114.951 301.089 114.951 300.225V298.337H111.682C110.184 298.337 108.971 297.638 108.971 296.773C108.971 295.911 110.184 295.208 111.682 295.208H114.948L114.951 293.321Z" fill="white"/>
<path fill-rule="evenodd" clip-rule="evenodd" d="M967.457 42.3205C967.457 41.4535 968.673 40.7546 970.168 40.7546C971.663 40.7546 972.879 41.4552 972.879 42.3205V44.2074H976.145C977.646 44.2074 978.856 44.908 978.856 45.7716C978.856 46.6369 977.643 47.3374 976.145 47.3374H972.879V49.2244C972.879 50.0897 971.663 50.7902 970.168 50.7902C968.673 50.7902 967.457 50.088 967.457 49.2244V47.3374H964.194C962.696 47.3374 961.483 46.6352 961.483 45.7716C961.483 44.908 962.699 44.2074 964.194 44.2074H967.457V42.3205Z" fill="white"/>
<path fill-rule="evenodd" clip-rule="evenodd" d="M87.1418 795.883C87.1418 795.018 88.3545 794.315 89.8496 794.315C91.3475 794.315 92.5602 795.019 92.5602 795.883V797.772H95.8268C97.3247 797.772 98.5375 798.47 98.5375 799.334C98.5375 800.199 97.3247 800.9 95.8268 800.9H92.5602V802.785C92.5602 803.65 91.3475 804.353 89.8496 804.353C88.3545 804.353 87.1418 803.649 87.1418 802.785V800.9H83.8752C82.3773 800.9 81.1646 800.199 81.1646 799.334C81.1646 798.469 82.3773 797.772 83.8752 797.772H87.1418V795.883Z" fill="white"/>
</g>
<defs>
<clipPath id="clip0_13_5009">
<rect width="1280" height="832" fill="white"/>
</clipPath>
</defs>
</svg>
