<svg width="200" height="276" viewBox="0 0 200 276" fill="none" xmlns="http://www.w3.org/2000/svg">
<path d="M99.8448 275.227C96.7926 275.123 94.2188 273.838 91.8816 272.003H88.7545C86.0896 271.984 83.6128 271.018 81.734 269.248H71.9685C67.5821 269.158 63.1941 266.379 62.2809 262.162L62.2228 262.125C59.8143 260.195 58.7071 257.642 58.5682 254.717C58.5755 252.944 58.7107 251.171 58.9752 249.415L8.67742 239.285L7.96766 239.141C3.2785 238.197 -0.0476937 234.263 0.0265157 229.747C0.0838259 220.856 -0.637694 211.852 2.81047 203.395C6.19986 195.083 12.5304 188.255 18.3504 181.38C25.7088 172.687 33.1077 164.022 40.5353 155.382C45.8982 150.094 47.605 146.366 50.6601 139.776C51.5565 137.841 52.7145 135.91 53.4367 133.915C53.9209 132.579 54.951 123.748 55.2221 121.962C56.361 114.443 57.5322 106.928 58.7409 99.4176C59.4918 94.754 60.2544 90.0918 61.0428 85.4324C62.6203 76.1081 64.3058 66.8059 66.1111 57.5182C67.2588 51.6127 68.2073 45.5999 69.7753 39.7725C70.4637 37.2145 71.4233 34.7215 72.2815 32.2112C74.557 25.5494 76.7186 18.6371 80.4923 12.5627C85.7773 4.05482 94.4459 -2.23681 105.299 0.756441C111.696 2.52084 116.047 7.23767 119.373 12.4534C122.566 17.7943 124.712 23.6182 126.703 29.4338C127.826 32.7149 129.103 36.005 130.038 39.3428C131.448 44.3835 132.354 49.5646 133.32 54.6931C134.821 62.6599 136.183 70.6481 137.521 78.6398C140.516 96.5364 143.392 114.451 146.25 132.368C146.376 132.972 146.342 133.603 146.458 134.207C146.752 135.753 148.945 139.33 149.718 140.868C150.567 142.555 152.852 147.363 152.917 147.467C153.878 149.023 157.193 152.408 158.551 153.984C162.247 158.276 163.835 160.124 167.806 164.773C175.055 173.259 182.247 181.77 188.877 190.699C194.618 198.43 199.565 205.935 199.769 215.696L199.999 229.747C200.072 234.261 196.748 238.194 192.061 239.141C175.037 242.202 158.36 246.721 141.455 250.257C141.891 251.908 141.811 253.565 141.811 255.245C141.859 258.23 140.305 260.519 138.155 262.544L138.097 262.582C137.823 263.91 137.067 265.189 136.16 266.225C131.916 271.072 124.385 269.668 118.644 269.668C115.712 272.68 111.59 272.423 107.641 272.423C105.546 274.34 102.917 274.93 100.175 275.229L100.011 275.223L99.8448 275.227ZM100.264 18.9367H100.351L100.436 18.9242C100.532 18.8938 100.72 18.7983 100.786 18.7056C100.794 18.6938 100.793 18.6793 100.797 18.6655L100.753 18.6578C100.552 18.7291 100.682 18.6765 100.377 18.8467L100.264 18.9367ZM100.223 18.974L100.188 19.0038L100.283 18.9879L100.223 18.974ZM114.788 250.749H119.571L119.577 250.736C120.74 249.115 120.203 249.657 120.967 248.938L120.431 245.384C120.365 244.944 120.332 244.5 120.332 244.055C120.368 241.213 121.681 238.593 123.986 236.756C124.364 236.456 124.846 236.285 125.215 235.975C127.626 233.955 123.95 235.567 129.173 233.323C130.113 232.919 139.615 231.281 140.412 231.102C146.106 229.83 151.756 228.389 157.443 227.09C157.475 227.082 157.508 227.075 157.54 227.067C164.948 225.439 172.358 223.82 179.786 222.274L179.684 215.986C179.543 210.461 175.673 205.928 172.458 201.596C168.551 196.331 164.466 191.198 160.239 186.155C152.442 176.855 144.498 167.663 136.538 158.486C135.988 157.853 135.529 157.156 135.17 156.413C132.806 151.007 129.753 145.897 127.482 140.455C127.403 140.264 127.33 140.071 127.263 139.876C126.642 138.33 126.585 136.684 126.368 135.069C125.49 129.561 124.611 124.053 123.723 118.547C120.925 101.181 118.159 83.8037 115.093 66.4766C113.785 59.0813 112.629 51.5656 110.651 44.2942C109.865 41.4048 108.726 38.5741 107.756 35.7372C105.717 30.0358 103.989 23.9856 99.9653 19.2024C96.0748 23.8369 94.2262 29.7507 92.3268 35.2992C91.3144 38.2572 90.1131 41.2387 89.2894 44.2583C88.2747 47.9822 87.6384 51.8099 86.9044 55.5885C85.6524 62.0427 84.3879 68.4935 83.2175 74.9609C79.4335 95.8673 76.2072 116.867 73.1345 137.875C73.0001 138.794 72.7223 139.69 72.3116 140.534C69.2698 146.232 67.2676 152.435 63.7636 157.913C61.5828 161.324 58.8033 164.359 56.0656 167.379C47.4507 177.396 38.8829 187.451 30.3627 197.541C26.711 201.866 22.5649 206.437 20.9455 211.883C19.955 215.217 20.2019 218.843 20.1872 222.257L69.4726 232.184C72.8392 232.853 73.6569 234.137 75.7083 236.304C76.2308 236.856 76.9706 237.199 77.4938 237.751C78.7877 239.114 79.6539 240.832 79.9398 242.641C80.252 244.623 79.7597 246.582 79.4196 248.527C80.1741 249.237 79.64 248.698 80.8001 250.317L80.806 250.33H84.7002C84.7002 243.573 84.7119 246.146 84.6928 242.609C84.6928 237.385 89.1895 233.15 94.7361 233.15H96.1968C97.5208 233.123 98.8 233.424 100.01 233.904C101.641 233.12 103.472 233.15 105.247 233.152C110.795 233.179 115.269 237.435 115.24 242.659C115.345 243.959 115.069 245.14 114.787 246.409L114.788 250.749ZM146.491 134.52L146.529 134.869L146.56 134.814L146.491 134.52Z" fill="white"/>
<path d="M127.964 244.056H105.188V259.79H127.964V244.056Z" fill="#464646"/>
<path d="M104.744 260.208V243.638H128.409V260.208H104.744ZM105.633 259.372H127.52V244.475H105.633V259.372Z" fill="#2A2A2A"/>
<path d="M129.927 244.056H123.499L122.188 253.312H131.322L129.927 244.056Z" fill="#808080"/>
<path d="M121.681 253.73L123.11 243.638H130.313L131.833 253.73H121.681ZM122.695 252.893H130.81L129.541 244.474H123.889L122.695 252.893Z" fill="#2A2A2A"/>
<path d="M119.217 244.055H113.486L112.434 253.311H120.362L119.217 244.055Z" fill="#808080"/>
<path d="M111.939 253.731L113.086 243.637H119.612L120.861 253.731H111.939ZM112.928 252.893H119.863L118.821 244.474H113.885L112.928 252.893Z" fill="#2A2A2A"/>
<path d="M131.322 253.311H122.188V254.827H131.322V253.311Z" fill="#2A2A2A"/>
<path d="M121.744 255.245V252.893H131.766V255.245H121.744ZM122.632 254.408H130.878V253.73H122.632V254.408Z" fill="#2A2A2A"/>
<path d="M120.362 253.311H112.434V254.827H120.362V253.311Z" fill="#2A2A2A"/>
<path d="M111.989 255.245V252.893H120.806V255.245H111.989ZM112.878 254.408H119.917V253.73H112.878V254.408Z" fill="#2A2A2A"/>
<path d="M127.964 256.984H105.188V259.789H127.964V256.984Z" fill="#2A2A2A"/>
<path d="M104.744 260.208V256.565H128.409V260.208H104.744ZM105.633 259.371H127.52V257.403H105.633V259.371Z" fill="#2A2A2A"/>
<path d="M111.179 244.056H105.189V262.544H111.179V244.056Z" fill="#808080"/>
<path d="M104.745 262.962V243.637H111.623V262.962H104.745ZM105.634 262.125H110.734V244.474H105.634V262.125Z" fill="#2A2A2A"/>
<path d="M111.178 260.587H105.188V262.544H111.178V260.587Z" fill="#2A2A2A"/>
<path d="M104.745 262.962V260.168H111.623V262.962H104.745ZM105.634 262.125H110.734V261.006H105.634V262.125Z" fill="#2A2A2A"/>
<path d="M11.0822 216.662H188.852L189.056 229.217L126.632 241.773H73.3012L10.9653 229.217L11.0822 216.662Z" fill="white"/>
<path d="M71.9688 244.056H94.7444V259.79H71.9688V244.056Z" fill="#464646"/>
<path d="M71.9688 244.056H94.7444V259.79H71.9688V244.056Z" stroke="#2A2A2A" stroke-width="2"/>
<path d="M70.0066 244.055H76.4342L77.7457 253.312H68.6113L70.0066 244.055Z" fill="#808080"/>
<path d="M70.0066 244.055H76.4342L77.7457 253.312H68.6113L70.0066 244.055Z" stroke="#2A2A2A" stroke-width="2"/>
<path d="M80.716 244.055H86.4471L87.4992 253.312H79.5713L80.716 244.055Z" fill="#808080"/>
<path d="M80.716 244.055H86.4471L87.4992 253.312H79.5713L80.716 244.055Z" stroke="#2A2A2A" stroke-width="2"/>
<path d="M68.6113 253.311H77.7457V254.827H68.6113V253.311Z" fill="#2A2A2A"/>
<path d="M68.6113 253.311H77.7457V254.827H68.6113V253.311Z" stroke="#2A2A2A" stroke-width="2"/>
<path d="M79.5718 253.311H87.4997V254.827H79.5718V253.311Z" fill="#2A2A2A"/>
<path d="M79.5718 253.311H87.4997V254.827H79.5718V253.311Z" stroke="#2A2A2A" stroke-width="2"/>
<path d="M71.9692 256.984H94.7449V259.789H71.9692V256.984Z" fill="#2A2A2A"/>
<path d="M71.9692 256.984H94.7449V259.789H71.9692V256.984Z" stroke="#2A2A2A" stroke-width="2"/>
<path d="M88.7544 244.055H94.7441V262.544H88.7544V244.055Z" fill="#808080"/>
<path d="M88.7544 244.055H94.7441V262.544H88.7544V244.055Z" stroke="#2A2A2A" stroke-width="2"/>
<path d="M88.7544 260.587H94.744V262.544H88.7544V260.587Z" fill="#2A2A2A"/>
<path d="M88.7544 260.587H94.744V262.544H88.7544V260.587Z" stroke="#2A2A2A" stroke-width="2"/>
<path d="M11.0814 220.846C11.0814 220.846 9.83016 212.641 15.5259 204.107C20.2702 196.997 56.56 155.131 56.56 155.131L65.3417 137.18C65.3417 137.18 72.1448 90.159 77.745 61.8096C79.7031 51.8999 81.0381 44.1351 82.1895 40.8831C86.634 28.3268 91.0777 11.5864 99.9667 11.5864C108.855 11.5864 113.299 28.3268 117.743 40.8831C118.788 43.8334 120.45 52.3026 122.188 61.8089C125.803 81.584 134.679 137.596 134.679 137.596L142.411 153.614C142.411 153.614 180.297 197.181 184.407 204.107C190.506 212.424 188.851 220.846 188.851 220.846L122.188 229.218H77.745L11.0814 220.846Z" fill="white"/>
<path d="M77.7458 230.901L67.355 229.585V124.413L67.4285 123.923C70.643 102.618 74.0191 81.3307 78.1058 60.1607C78.7377 56.8844 79.3512 53.6047 79.9941 50.3299C80.5709 47.394 81.1359 44.4464 81.972 41.5653C82.1983 40.7848 82.4908 40.0237 82.756 39.2549H94.7449V230.901H77.7458Z" fill="#C9C9C9"/>
<path d="M55.7626 238.648C55.479 231.101 57.1887 219.953 59.8581 212.904C60.9168 210.107 62.2283 207.326 63.7809 204.746C65.0512 202.635 66.9285 199.694 69.4825 198.884C69.6427 198.833 69.8183 198.845 69.9858 198.827H77.0783C82.3398 198.827 82.9658 206.968 82.9658 210.012L83.1216 242.609L55.7626 238.648Z" fill="#C9C9C9"/>
<path d="M73.2064 242.61L73.1145 242.592L10.7779 230.036L10.0688 229.893L10.1871 215.862L189.726 215.824L189.955 229.892L189.241 230.036L126.817 242.592L126.725 242.61H73.2064ZM73.3945 240.936H126.537L188.155 228.543L187.975 217.499H11.9616L11.8594 228.541L73.3945 240.936Z" fill="#2A2A2A"/>
<path d="M10.1966 220.844C9.61978 208.297 13.6807 203.299 15.9988 199.825C17.9746 196.864 22.674 191.451 33.3874 178.822C33.6078 178.562 33.8297 178.301 34.053 178.037C38.6004 172.682 43.4718 166.991 48.3431 161.332C50.0477 159.351 51.6311 157.516 53.0514 155.872C54.0565 154.709 53.5209 155.33 54.6597 154.012L63.185 136.586C63.3709 135.305 63.5597 134.027 63.7486 132.749C64.2364 129.452 64.7868 125.78 65.3892 121.824C67.1108 110.523 68.9006 99.221 70.6677 88.6706C71.459 83.9448 72.2297 79.4688 72.9755 75.2819C73.8844 70.1742 74.7484 65.5369 75.5611 61.4248C75.9747 59.329 77.6816 50.4689 78.0871 48.4575C78.9167 44.3392 79.5111 41.8324 80.082 40.2195C80.6624 38.5796 82.7124 32.5592 82.7785 32.3655C85.2215 25.2871 87.0312 20.8803 89.2163 17.2491C92.2156 12.2652 95.6652 9.49194 99.9672 9.49194C104.269 9.49194 107.719 12.2652 110.717 17.2491C112.902 20.8803 114.712 25.2871 117.155 32.3655C117.222 32.5585 119.272 38.579 119.852 40.2195C120.832 42.9879 122.256 49.8448 124.378 61.4532C125.601 68.1434 127.494 79.3414 129.877 93.869C129.992 94.5651 130.106 95.2674 130.223 95.9766C131.702 105.014 133.267 114.695 134.818 124.377C135.319 127.509 135.82 130.641 136.318 133.773C136.489 134.847 136.426 135.979 136.831 136.997C138.071 140.114 139.756 143.057 141.219 146.087C142.25 148.225 143.283 150.364 144.314 152.501C145.474 153.838 144.928 153.208 145.953 154.389C147.402 156.062 149.016 157.93 150.754 159.946C155.722 165.709 160.69 171.513 165.327 176.988C165.619 177.333 165.91 177.677 166.198 178.017C173.196 186.259 177.763 192.053 184.052 200.784C186.387 204.071 189.596 209.14 189.727 215.824L189.635 220.843L180.228 220.846L186.8 219.195C186.924 217.565 186.753 215.936 186.489 214.325C185.939 211.306 184.752 208.347 182.78 205.572C182.676 205.422 182.561 205.281 182.468 205.125C180.895 202.475 173.656 193.551 162.722 180.624C162.434 180.283 162.144 179.941 161.853 179.597C157.224 174.133 152.264 168.338 147.304 162.583C145.568 160.57 143.956 158.704 142.509 157.034C142.003 156.449 141.554 155.931 141.167 155.485C140.947 155.233 140.669 155.016 140.508 154.728C139.931 153.692 139.48 152.599 138.967 151.534C136.821 147.087 134.528 142.7 132.527 138.193C132.278 137.632 132.336 136.99 132.241 136.387C132.133 135.71 132.025 135.033 131.918 134.356C131.468 131.533 130.966 128.388 130.423 125.001C128.873 115.323 127.309 105.645 125.83 96.6132C125.714 95.9061 125.6 95.2031 125.486 94.507C123.106 80.0029 121.215 68.8215 119.998 62.1624C117.932 50.8592 116.509 44.0112 115.636 41.5431C115.046 39.8763 112.988 33.8317 112.928 33.6594C110.575 26.8391 108.844 22.626 106.851 19.3131C104.558 15.502 102.288 13.6774 99.9672 13.6774C97.6454 13.6774 95.3757 15.502 93.0826 19.3131C91.0892 22.626 89.3596 26.8391 87.0055 33.6594C86.946 33.8317 84.888 39.8756 84.298 41.5431C83.8123 42.9145 83.2451 45.3065 82.453 49.238C82.0526 51.2287 80.3472 60.0783 79.9306 62.1901C79.1231 66.2766 78.2635 70.8903 77.3583 75.9745C76.6154 80.1468 75.8469 84.6097 75.0578 89.3231C73.2944 99.8514 71.5068 111.135 69.7889 122.418C69.1872 126.368 68.6376 130.035 68.1504 133.327C67.7831 135.085 67.8969 136.957 67.0946 138.596L58.4606 156.247C57.8059 157.002 57.152 157.758 56.4988 158.513C55.0793 160.155 53.4981 161.989 51.795 163.967C46.9295 169.619 42.0647 175.303 37.524 180.65C37.3014 180.912 37.0802 181.173 36.8598 181.433C26.3154 193.864 19.2479 202.461 17.4074 205.218C15.4103 208.211 14.187 211.364 13.5926 214.54C13.281 216.081 13.1826 217.646 13.1987 219.212L19.7064 220.846L10.1966 220.844Z" fill="#2A2A2A"/>
<path d="M11.0814 216.662H188.852L189.056 220.847L122.188 229.218H77.7457L10.9653 220.847L11.0814 216.662Z" fill="#2A2A2A"/>
<path d="M77.7451 237.587V65.9936C77.7451 50.9699 87.6936 11.5864 99.9661 11.5864C112.239 11.5864 122.187 50.9699 122.187 65.9936V237.587H77.7451Z" fill="white"/>
<path d="M77.7451 237.587V65.9936C77.7451 50.9699 87.6936 11.5864 99.9661 11.5864C112.239 11.5864 122.187 50.9699 122.187 65.9936V237.587H77.7451Z" stroke="#2A2A2A" stroke-width="4"/>
<path d="M77.7466 237.587V65.9936C78.0045 57.1744 79.7649 48.4084 82.1609 39.8957C83.7855 34.123 85.7318 28.3662 88.4452 22.9575C89.9147 20.0286 91.6135 17.2007 93.8846 14.752C95.0183 13.5293 96.7589 12.1351 98.4936 11.7926C98.0697 12.6035 97.6104 13.3992 97.2218 14.2261C93.1461 22.8993 90.4966 32.4866 88.6245 41.7874C87.4276 47.7324 86.468 53.7895 86.41 59.8521V237.588L77.7466 237.587Z" fill="#C9C9C9"/>
<path d="M94.7451 24.1413V19.9566H96.3013V24.1413H94.7451Z" fill="white"/>
<path d="M99.188 24.1413V19.9566H100.744V24.1413H99.188Z" fill="white"/>
<path d="M103.633 24.1413V19.9566H105.189V24.1413H103.633Z" fill="white"/>
<path d="M99.5215 237.587V204.525H77.7451V203.687H99.5215V162.672H77.7451V161.835H99.5215V120.821H77.7451V119.984H99.5215V78.9685H77.7451V78.132H122.187V78.9685H100.411V119.984H122.187V120.821H100.411V161.835H122.187V162.672H100.411V203.687H122.187V204.525H100.411V237.587H99.5215Z" fill="#2A2A2A"/>
<path d="M90.96 69.7874H99.0495V74.3638H90.96V69.7874Z" fill="#2A2A2A"/>
<path d="M100.88 69.7874H108.97V74.3638H100.88V69.7874Z" fill="#2A2A2A"/>
<path d="M83.1211 61.8088C83.1461 60.4672 83.1527 59.1263 83.1909 57.7853C83.2071 57.2027 83.2401 56.2029 83.3283 55.639C83.3893 55.2501 83.4855 54.8668 83.5862 54.4855C83.9807 52.9889 84.8632 51.5947 85.8448 50.3831C86.0417 50.1403 86.2783 49.9299 86.495 49.703L92.0931 54.9796C90.7125 56.9149 91.0784 59.6466 91.0784 61.8088H83.1211ZM92.65 54.3202L87.1034 49.0927C87.4906 48.7744 87.8587 48.4326 88.2658 48.1358C90.0512 46.8377 92.3723 45.759 94.6184 45.4006C96.9079 45.0353 96.9667 45.128 99.5221 45.0623V53.4393H94.6338C93.9446 53.4262 93.495 53.7134 92.9388 54.0455L92.65 54.3202Z" fill="#2A2A2A"/>
<path d="M108.855 61.8082V58.46C108.842 57.2401 108.567 56.0044 107.841 54.9789L113.439 49.7023C114.69 50.8786 115.515 52.3517 116.144 53.8898C117.084 56.461 116.813 59.1388 116.813 61.8082H108.855ZM107.284 54.3195C106.775 53.7549 106.067 53.4927 105.3 53.4387H100.412V45.0588L101.928 45.0685C103.721 45.1446 104.331 45.1059 106.354 45.6324C108.277 46.1389 110.087 46.9872 111.669 48.1365C112.076 48.4333 112.443 48.7745 112.83 49.0928L107.284 54.3195Z" fill="#2A2A2A"/>
<path d="M100.011 265.769C102.118 265.769 103.824 260.242 103.824 258.574V213.557C103.824 211.889 102.118 187.651 100.011 187.651C97.9046 187.651 96.1978 211.889 96.1978 213.557V258.574C96.1978 260.242 97.9046 265.769 100.011 265.769Z" fill="#2A2A2A"/>
<path d="M67.3856 244.056C67.102 236.509 68.8125 225.362 71.4811 218.311C72.5399 215.515 73.8514 212.734 75.4039 210.154C76.6743 208.042 78.5516 205.102 81.1055 204.291C81.2665 204.241 81.4413 204.254 81.6088 204.235H88.7014C93.9629 204.235 94.5889 212.376 94.5889 215.42L94.7446 244.056H67.3856Z" fill="white"/>
<path d="M67.3856 244.056C67.102 236.509 68.8125 225.362 71.4811 218.311C72.5399 215.515 73.8514 212.734 75.4039 210.154C76.6743 208.042 78.5516 205.102 81.1055 204.291C81.2665 204.241 81.4413 204.254 81.6088 204.235H88.7014C93.9629 204.235 94.5889 212.376 94.5889 215.42L94.7446 244.056H67.3856Z" stroke="#2A2A2A" stroke-width="4"/>
<path d="M132.548 244.056C132.831 236.509 131.121 225.362 128.452 218.311C127.393 215.515 126.082 212.734 124.529 210.154C123.259 208.042 121.382 205.102 118.828 204.291C118.667 204.241 118.492 204.254 118.324 204.235H111.232C105.97 204.235 105.344 212.376 105.344 215.42L105.188 244.056H132.548Z" fill="white"/>
<path d="M132.548 244.056C132.831 236.509 131.121 225.362 128.452 218.311C127.393 215.515 126.082 212.734 124.529 210.154C123.259 208.042 121.382 205.102 118.828 204.291C118.667 204.241 118.492 204.254 118.324 204.235H111.232C105.97 204.235 105.344 212.376 105.344 215.42L105.188 244.056H132.548Z" stroke="#2A2A2A" stroke-width="4"/>
<path d="M38.6279 234.571L36.8506 234.57L36.8579 220.846L38.636 220.846L38.6279 234.571Z" fill="#2A2A2A"/>
<path d="M163.026 234.573L161.249 234.567L161.298 220.844L163.076 220.849L163.026 234.573Z" fill="#2A2A2A"/>
<path d="M83.1211 36.697C84.1791 33.4394 83.6949 34.8295 84.5311 32.5122H115.443C116.383 35.2301 115.925 33.8352 116.813 36.697H83.1211Z" fill="#2A2A2A"/>
<path d="M114.648 30.2129L114.579 30.0268L114.606 30.0939L114.648 30.2129Z" fill="#2A2A2A"/>
<path d="M86.0122 28.3496L86.0952 28.1074C87.4508 24.5932 88.9593 21.1156 91.0048 17.932C91.5625 17.0637 92.1753 16.2299 92.7924 15.4024C93.0944 14.9976 93.4383 14.6253 93.7616 14.2365C95.3134 12.4762 97.8086 10.5797 100.34 10.9734C104.542 11.6279 107.36 15.839 109.293 19.1858C111.038 22.1244 112.301 25.1834 113.528 28.3489H86.0122V28.3496Z" fill="#2A2A2A"/>
<path d="M69.3741 242.29C69.2727 234.416 70.4659 226.305 73.2161 218.829C74.2095 216.28 75.4394 213.747 76.8957 211.395C78.0875 209.471 79.8479 206.792 82.2432 206.052C82.3938 206.007 82.5584 206.018 82.7156 206H88.0308C87.8736 206.018 87.709 206.007 87.5584 206.052C85.1631 206.791 83.4026 209.47 82.2109 211.395C80.7539 213.747 79.5239 216.281 78.5313 218.829C75.8465 226.303 74.5217 234.423 74.6893 242.29H69.3741Z" fill="#C9C9C9"/>
<path d="M107.97 241.772L108.102 216.048C108.158 213.749 108.316 211.355 109.214 209.203C109.743 207.937 110.576 206.638 111.951 206.183C112.469 206.011 112.638 206.024 113.107 205.999H117.836C117.367 206.023 117.197 206.011 116.679 206.183C115.305 206.638 114.471 207.937 113.942 209.203C113.05 211.341 112.859 213.759 112.831 216.048L112.699 241.772H107.97Z" fill="#C9C9C9"/>
<path d="M109.068 26.5077C107.974 23.796 106.847 21.1757 105.293 18.6585C103.991 16.5585 102.59 14.379 100.474 12.9259C99.4133 12.1967 99.2384 12.2167 98.0415 11.7787C98.6227 11.5469 99.245 11.5642 99.8578 11.6237C103.603 12.1835 106.115 15.7912 107.839 18.6585C109.394 21.1757 110.521 23.796 111.614 26.5077H109.068Z" fill="#808080"/>
<path d="M73.7446 245.372H75.4331L76.3809 252.358H74.6925L73.7446 245.372Z" fill="#DCDCDC"/>
<path d="M127.352 245.372H129.041L129.988 252.358H128.3L127.352 245.372Z" fill="#DCDCDC"/>
<path d="M116.388 245.372H118.077L119.024 252.358H117.336L116.388 245.372Z" fill="#DCDCDC"/>
<path d="M83.8296 245.372H85.518L86.4659 252.358H84.7774L83.8296 245.372Z" fill="#DCDCDC"/>
<path d="M93.0415 245.372H93.7145V259.326H93.0415V245.372Z" fill="#DCDCDC"/>
<path d="M109.41 245.372H110.083V259.326H109.41V245.372Z" fill="#DCDCDC"/>
</svg>
