<svg width="150" height="150" viewBox="0 0 150 150" fill="none" xmlns="http://www.w3.org/2000/svg">
<path fill-rule="evenodd" clip-rule="evenodd" d="M53.6445 3.12498C13.9492 14.9186 -8.66866 56.6596 3.12482 96.3555C14.9197 136.051 56.6601 158.67 96.3555 146.875C136.051 135.081 158.669 93.3413 146.875 53.6439C135.08 13.948 93.3399 -8.66866 53.6445 3.12498Z" fill="#688BC4"/>
<path fill-rule="evenodd" clip-rule="evenodd" d="M137.05 61.2621C137.05 100.679 105.095 132.633 65.6783 132.633C38.3841 132.633 14.6676 117.309 2.66211 94.7943C11.3475 126.6 40.4448 149.98 75.0012 149.98C116.413 149.98 149.98 116.411 149.98 74.9998C149.98 50.5287 138.256 28.7929 120.12 15.1093C130.677 27.5519 137.05 43.662 137.05 61.2621Z" fill="#406495"/>
<path fill-rule="evenodd" clip-rule="evenodd" d="M19.8578 60.1449C18.994 63.0837 15.9087 64.7673 12.9685 63.9035C10.0283 63.0425 8.34471 59.9557 9.20998 57.0154C11.9509 47.7948 16.6003 39.31 22.6799 31.9907C28.8364 24.5775 36.4544 18.3726 45.0359 13.8328C47.7483 12.4053 51.1055 13.4443 52.5343 16.1596C53.9617 18.8693 52.9214 22.2279 50.2075 23.6568C42.8912 27.5263 36.416 32.7948 31.2002 39.0766C26.0812 45.2346 22.1662 52.3816 19.8578 60.1449ZM65.3994 18.0296C62.4094 18.7028 59.4422 16.8242 58.7705 13.837C58.0987 10.8456 59.9759 7.87973 62.9659 7.208C64.436 6.87783 65.9786 6.58466 67.5925 6.33134C69.1252 6.09083 70.6764 5.89443 72.2361 5.75354C75.2859 5.47745 77.9827 7.72604 78.256 10.7744C78.5321 13.8228 76.2835 16.5168 73.2366 16.7929C71.906 16.9168 70.5881 17.0804 69.2874 17.2839C68.0308 17.4817 66.7329 17.7308 65.3994 18.0296Z" fill="#9EB3D7"/>
<path fill-rule="evenodd" clip-rule="evenodd" d="M132.974 79.2051C139.797 79.2051 145.363 73.6392 145.363 66.8152C145.363 59.9884 139.797 54.4224 132.974 54.4224C126.149 54.4224 120.583 59.9884 120.583 66.8152C120.583 73.6392 126.149 79.2051 132.974 79.2051Z" fill="#406495"/>
<path fill-rule="evenodd" clip-rule="evenodd" d="M121.809 93.68C125.054 93.68 127.7 91.0358 127.7 87.791C127.7 84.5463 125.056 81.9006 121.809 81.9006C118.567 81.9006 115.922 84.5448 115.922 87.791C115.922 91.0358 118.566 93.68 121.809 93.68Z" fill="#406495"/>
<path fill-rule="evenodd" clip-rule="evenodd" d="M134.75 50.8688C136.879 50.8688 138.614 49.1326 138.614 47.0049C138.614 44.8773 136.879 43.1411 134.75 43.1411C132.622 43.1411 130.886 44.8773 130.886 47.0049C130.888 49.1326 132.622 50.8688 134.75 50.8688Z" fill="#406495"/>
<path fill-rule="evenodd" clip-rule="evenodd" d="M81.3942 121.069C87.4468 124.733 89.3794 132.61 85.7148 138.663C82.0517 144.714 74.1733 146.647 68.1235 142.982C62.0724 139.319 60.1369 131.44 63.8015 125.391C67.466 119.339 75.3431 117.404 81.3942 121.069Z" fill="#688BC4"/>
<path fill-rule="evenodd" clip-rule="evenodd" d="M58.6208 135.367C60.3585 136.417 60.9149 138.68 59.8632 140.419C58.8087 142.158 56.5474 142.713 54.8097 141.662C53.0706 140.607 52.5156 138.346 53.5673 136.606C54.619 134.867 56.8818 134.312 58.6208 135.367Z" fill="#688BC4"/>
<path fill-rule="evenodd" clip-rule="evenodd" d="M93.3942 130.756C94.2623 131.281 94.5413 132.411 94.0147 133.281C93.4882 134.152 92.3568 134.428 91.4872 133.901C90.6191 133.375 90.3402 132.242 90.8653 131.374C91.3933 130.505 92.5247 130.226 93.3942 130.756Z" fill="#688BC4"/>
<path fill-rule="evenodd" clip-rule="evenodd" d="M118.497 102.811C119.811 102.811 120.883 101.739 120.883 100.426C120.883 99.1108 119.811 98.0419 118.497 98.0419C117.184 98.0419 116.113 99.1108 116.113 100.426C116.114 101.739 117.186 102.811 118.497 102.811Z" fill="#406495"/>
<path fill-rule="evenodd" clip-rule="evenodd" d="M38.0158 114.633C45.9113 114.633 52.3538 108.189 52.3538 100.293C52.3538 92.3963 45.9127 85.9552 38.0158 85.9552C30.1188 85.9552 23.6777 92.3963 23.6777 100.293C23.6763 108.188 30.1188 114.633 38.0158 114.633Z" fill="#406495"/>
<path fill-rule="evenodd" clip-rule="evenodd" d="M38.0159 109.444C43.0566 109.444 47.1681 105.333 47.1681 100.292C47.1681 95.2512 43.0566 91.1411 38.0159 91.1411C32.9752 91.1411 28.8638 95.2512 28.8638 100.292C28.8638 105.333 32.9752 109.444 38.0159 109.444Z" fill="#688BC4"/>
<path fill-rule="evenodd" clip-rule="evenodd" d="M116.392 12.4822C113.981 17.0021 109.218 20.0804 103.736 20.0804C95.8162 20.0804 89.3979 13.6591 89.3979 5.74072C89.3979 4.2763 89.6171 2.86171 90.0256 1.52964C99.4638 3.46797 108.415 7.20799 116.392 12.4822Z" fill="#406495"/>
<path fill-rule="evenodd" clip-rule="evenodd" d="M112.757 10.2251C111.108 13.5367 107.687 15.8138 103.736 15.8138C98.1716 15.8138 93.6646 11.3038 93.6646 5.74072C93.6646 4.60932 93.8496 3.52204 94.1925 2.50875C100.713 4.24073 106.958 6.84367 112.757 10.2251Z" fill="#688BC4"/>
<path fill-rule="evenodd" clip-rule="evenodd" d="M79.4986 124.202C83.8206 126.818 85.2011 132.444 82.5839 136.766C79.9654 141.087 74.3426 142.47 70.0206 139.851C65.6985 137.233 64.3166 131.61 66.9352 127.288C69.5509 122.966 75.1766 121.584 79.4986 124.202Z" fill="#406495"/>
<path fill-rule="evenodd" clip-rule="evenodd" d="M100.098 130.047C103.915 130.047 107.027 126.933 107.027 123.121C107.027 119.305 103.914 116.193 100.098 116.193C96.2842 116.193 93.1719 119.307 93.1719 123.121C93.1719 126.933 96.2842 130.047 100.098 130.047Z" fill="#688BC4"/>
<path fill-rule="evenodd" clip-rule="evenodd" d="M100.098 127.172C102.331 127.172 104.153 125.351 104.153 123.119C104.153 120.886 102.333 119.065 100.098 119.065C97.8684 119.065 96.0439 120.885 96.0439 123.119C96.0439 125.351 97.867 127.172 100.098 127.172Z" fill="#406495"/>
<path fill-rule="evenodd" clip-rule="evenodd" d="M35.0715 55.8968C43.0496 55.8968 49.5576 49.3902 49.5576 41.412C49.5576 33.4338 43.051 26.9258 35.0715 26.9258C27.0935 26.9258 20.5869 33.4338 20.5869 41.412C20.5869 49.3902 27.0935 55.8968 35.0715 55.8968Z" fill="#9EB3D7"/>
<path fill-rule="evenodd" clip-rule="evenodd" d="M35.0709 49.2706C39.4001 49.2706 42.9309 45.7412 42.9309 41.412C42.9309 37.0828 39.4015 33.5519 35.0709 33.5519C30.7403 33.5519 27.2124 37.0828 27.2124 41.412C27.2124 45.7398 30.7403 49.2706 35.0709 49.2706Z" fill="#688BC4"/>
<path fill-rule="evenodd" clip-rule="evenodd" d="M61.3293 99.0296C63.5622 99.0296 65.3824 97.2066 65.3824 94.9751C65.3824 92.7407 63.5622 90.9191 61.3293 90.9191C59.0965 90.9191 57.2734 92.7393 57.2734 94.9751C57.2734 97.2051 59.0965 99.0296 61.3293 99.0296Z" fill="#406495"/>
<path fill-rule="evenodd" clip-rule="evenodd" d="M17.8428 104.358C19.5306 104.358 20.9096 102.979 20.9096 101.292C20.9096 99.6018 19.532 98.227 17.8428 98.227C16.1535 98.227 14.7773 99.6032 14.7773 101.292C14.7773 102.979 16.1535 104.358 17.8428 104.358Z" fill="#406495"/>
<path fill-rule="evenodd" clip-rule="evenodd" d="M113.58 30.1463C115.267 30.1463 116.644 28.7673 116.644 27.0795C116.644 25.3916 115.267 24.014 113.58 24.014C111.89 24.014 110.513 25.3916 110.513 27.0795C110.513 28.7673 111.892 30.1463 113.58 30.1463Z" fill="#406495"/>
<path fill-rule="evenodd" clip-rule="evenodd" d="M108.307 74.6738C111.413 74.6738 113.949 72.1406 113.949 69.0311C113.949 65.9215 111.413 63.3883 108.307 63.3883C105.197 63.3883 102.664 65.9215 102.664 69.0311C102.664 72.1406 105.199 74.6738 108.307 74.6738Z" fill="#406495"/>
<path fill-rule="evenodd" clip-rule="evenodd" d="M57.0319 40.0828C60.1414 40.0828 62.6746 37.5496 62.6746 34.44C62.6746 31.3304 60.1414 28.7972 57.0319 28.7972C53.9252 28.7972 51.3892 31.3304 51.3892 34.44C51.3892 37.5481 53.9252 40.0828 57.0319 40.0828Z" fill="#9EB3D7"/>
</svg>
