<svg width="150" height="150" viewBox="0 0 150 150" fill="none" xmlns="http://www.w3.org/2000/svg">
<path fill-rule="evenodd" clip-rule="evenodd" d="M53.6441 3.12498C13.9484 14.9186 -8.6695 56.6596 3.12548 96.3555C14.919 136.051 56.6597 158.67 96.3539 146.875C136.052 135.081 158.67 93.3413 146.874 53.6439C135.079 13.948 93.3397 -8.66866 53.6441 3.12498Z" fill="#54B9C3"/>
<path fill-rule="evenodd" clip-rule="evenodd" d="M19.8572 60.1449C18.9934 63.0837 15.9095 64.7673 12.9693 63.9035C10.029 63.0425 8.3469 59.9557 9.20932 57.0154C11.9517 47.7948 16.6025 39.31 22.6822 31.9907C28.8387 24.5775 36.4567 18.3726 45.0354 13.8328C47.7479 12.4053 51.1051 13.4443 52.5339 16.1596C53.9613 18.8693 52.921 22.2279 50.21 23.6568C42.8936 27.5263 36.4183 32.7948 31.2011 39.0766C26.0806 45.2346 22.167 52.3816 19.8572 60.1449ZM65.3991 18.0296C62.4105 18.7028 59.4419 16.8242 58.7716 13.837C58.0984 10.8456 59.977 7.87973 62.9656 7.208C64.4357 6.87783 65.9783 6.58466 67.5922 6.33134C69.1263 6.09083 70.6761 5.89443 72.2387 5.75354C75.2871 5.47745 77.9825 7.72604 78.2572 10.7744C78.5333 13.8228 76.2847 16.5168 73.2378 16.7929C71.9071 16.9168 70.5893 17.0804 69.2871 17.2839C68.0305 17.4817 66.7326 17.7308 65.3991 18.0296Z" fill="#A5D9E7"/>
<path fill-rule="evenodd" clip-rule="evenodd" d="M137.049 61.2621C137.049 100.679 105.093 132.633 65.6782 132.633C38.381 132.633 14.6672 117.309 2.66162 94.7943C11.3442 126.6 40.4417 149.98 74.9998 149.98C116.41 149.98 149.981 116.411 149.981 74.9998C149.981 50.5287 138.257 28.7929 120.118 15.1093C130.679 27.5519 137.049 43.662 137.049 61.2621Z" fill="#3DA2AA"/>
<path fill-rule="evenodd" clip-rule="evenodd" d="M7.73051 41.8873C6.10671 45.1833 4.72342 48.5975 3.5963 52.107L20.6313 47.5415C29.9671 45.0382 37.6933 48.7953 42.5433 50.1843C47.3962 51.5718 56.2937 54.1179 62.0546 55.5581C67.8169 57.004 75.1873 56.0704 83.6849 53.7948C89.2963 52.292 120.137 43.9252 140.458 38.4105C134.554 27.8237 126.269 19.0443 116.514 12.5633C91.4282 19.3532 51.0167 30.2901 42.0395 32.6952L7.73051 41.8873ZM0.434082 82.9722L21.1038 77.4319C31.8342 74.5586 40.9452 85.7075 57.8065 81.1918C70.4767 77.7948 122.623 63.69 147.756 56.8902C149.388 63.431 150.106 70.0031 149.98 76.4627C125.064 83.207 78.1759 95.8958 71.0687 97.7986C61.3145 100.411 64.8553 109.171 49.3886 113.315L16.6337 122.092C14.8661 119.903 13.2124 117.607 11.6868 115.204L33.8195 109.273C46.2207 105.95 48.8991 100.901 49.8625 97.8057C50.826 94.7104 48.8279 93.3811 45.4907 92.6283C42.152 91.8811 32.7977 90.1321 25.2024 92.1672L3.61907 97.9495C3.44829 97.4215 3.28321 96.892 3.12381 96.3555C1.80172 91.9053 0.915103 87.4267 0.434082 82.9722ZM32.0292 136.444C35.328 138.748 38.8005 140.788 42.4195 142.532C44.3365 140.129 46.4228 137.517 48.0737 135.474C52.2207 130.33 57.4778 128.771 62.2168 127.5C66.9559 126.23 72.4535 124.457 82.7655 121.696C93.0747 118.934 125.357 109.456 134.882 109.89C136.711 109.972 138.836 110.169 141.076 110.435C143.078 106.7 144.767 102.798 146.117 98.7678C144.533 98.5486 143.225 98.3878 142.387 98.3223C137.656 97.9466 136.169 96.8508 124.045 100.101C111.921 103.347 69.9046 114.391 60.9872 116.779C52.0684 119.169 49.4043 120.928 43.7502 126.028C40.3304 129.111 35.3949 133.477 32.0292 136.444Z" fill="#A9D1C1"/>
<path fill-rule="evenodd" clip-rule="evenodd" d="M133.888 40.1938L140.46 38.4105L140.199 37.948L139.828 37.3005L139.772 37.2052C135.109 29.2298 129.013 22.1938 121.841 16.4471L121.609 16.2635L121.321 16.0372C120.928 15.727 120.531 15.4238 120.131 15.1221C126.284 22.3759 131.011 30.8793 133.888 40.1938ZM137.048 61.2621C137.048 67.9964 136.115 74.5102 134.371 80.6881L149.963 76.4684C149.973 75.9803 149.983 75.4893 149.983 74.9998C149.983 71.9756 149.804 68.9926 149.455 66.0652L149.42 65.7863L149.381 65.4803C149.011 62.6184 148.472 59.7521 147.757 56.8902L137.034 59.7905C137.041 60.2801 137.048 60.7711 137.048 61.2621ZM125.872 99.6217C122.673 104.628 118.868 109.208 114.558 113.26C123.117 111.225 130.944 109.71 134.882 109.891C136.711 109.974 138.836 110.17 141.076 110.436C143.078 106.702 144.767 102.8 146.117 98.7692C144.533 98.55 143.225 98.3892 142.387 98.3238C137.905 97.9651 136.331 96.9646 125.872 99.6217ZM52.5082 131.419C48.6173 130.69 44.836 129.652 41.1942 128.321C38.1458 131.043 34.6221 134.16 32.0292 136.444C35.328 138.748 38.8005 140.788 42.4195 142.532C44.3365 140.129 46.4228 137.517 48.0737 135.474C49.4498 133.766 50.9484 132.454 52.5082 131.419ZM24.9377 119.866C22.2408 117.989 19.6806 115.93 17.2727 113.707L11.6982 115.199C13.2196 117.592 14.8732 119.892 16.6493 122.089L24.9377 119.866ZM4.33347 97.7573C3.76706 96.8067 3.222 95.8446 2.69971 94.8684C2.83633 95.3636 2.97722 95.8603 3.12523 96.3555C3.28462 96.892 3.4497 97.4215 3.62048 97.9495L4.33347 97.7573Z" fill="#96C7B3"/>
<path fill-rule="evenodd" clip-rule="evenodd" d="M11.7529 49.9224C13.307 46.2265 15.177 42.6814 17.3259 39.3157L35.4368 34.4656C33.9482 35.9315 32.5308 37.4684 31.1987 39.0752C29.1978 41.4831 27.379 44.0462 25.7694 46.736C24.1214 46.8185 22.4066 47.0662 20.6333 47.5415L11.7529 49.9224Z" fill="#91D1DF"/>
<path fill-rule="evenodd" clip-rule="evenodd" d="M92.1683 82.4329C98.1896 82.4329 103.104 77.5216 103.104 71.496C103.104 65.4732 98.191 60.5619 92.1683 60.5619C86.1441 60.5619 81.2314 65.4732 81.2314 71.496C81.2314 77.5201 86.1441 82.4329 92.1683 82.4329Z" fill="#A9D1C1"/>
<path fill-rule="evenodd" clip-rule="evenodd" d="M73.4527 74.3793C76.1396 74.3793 78.3326 72.1876 78.3326 69.4993C78.3326 66.8123 76.1396 64.6193 73.4527 64.6193C70.763 64.6193 68.5728 66.8123 68.5728 69.4993C68.5713 72.1862 70.763 74.3793 73.4527 74.3793Z" fill="#A9D1C1"/>
<path fill-rule="evenodd" clip-rule="evenodd" d="M107.443 65.6852C108.653 65.6852 109.637 64.699 109.637 63.4879C109.637 62.281 108.653 61.2934 107.443 61.2934C106.233 61.2934 105.249 62.281 105.249 63.4879C105.249 64.699 106.235 65.6852 107.443 65.6852Z" fill="#A9D1C1"/>
<path fill-rule="evenodd" clip-rule="evenodd" d="M85.0685 128.065C89.6823 128.065 93.4437 124.301 93.4437 119.688C93.4437 115.074 89.6809 111.311 85.0685 111.311C80.4561 111.311 76.6934 115.074 76.6934 119.688C76.6934 124.302 80.4547 128.065 85.0685 128.065Z" fill="#A9D1C1"/>
<path fill-rule="evenodd" clip-rule="evenodd" d="M85.0685 124.215C87.5618 124.215 89.5984 122.184 89.5984 119.688C89.5984 117.195 87.5618 115.161 85.0685 115.161C82.5752 115.161 80.5415 117.195 80.5415 119.688C80.5415 122.184 82.5752 124.215 85.0685 124.215Z" fill="#54B9C3"/>
<path fill-rule="evenodd" clip-rule="evenodd" d="M98.1981 110.17C100.176 110.17 101.787 108.556 101.787 106.581C101.787 104.606 100.175 102.993 98.1981 102.993C96.2214 102.993 94.6104 104.606 94.6104 106.581C94.6089 108.556 96.2214 110.17 98.1981 110.17Z" fill="#54B9C3"/>
<path fill-rule="evenodd" clip-rule="evenodd" d="M91.3943 115.821C92.2866 115.821 93.0181 115.091 93.0181 114.195C93.0181 113.302 92.288 112.574 91.3943 112.574C90.4992 112.574 89.7705 113.302 89.7705 114.195C89.7705 115.091 90.4992 115.821 91.3943 115.821Z" fill="#54B9C3"/>
<path fill-rule="evenodd" clip-rule="evenodd" d="M74.0315 90.976C76.8721 90.976 79.1876 88.6606 79.1876 85.82C79.1876 82.9822 76.8721 80.6667 74.0315 80.6667C71.1938 80.6667 68.8755 82.9822 68.8755 85.82C68.8769 88.6606 71.1938 90.976 74.0315 90.976Z" fill="#54B9C3"/>
<path fill-rule="evenodd" clip-rule="evenodd" d="M116.322 53.9243C122.604 53.9243 127.73 48.7981 127.73 42.5149C127.73 36.2331 122.604 31.1069 116.322 31.1069C110.037 31.1069 104.914 36.2331 104.914 42.5149C104.914 48.7995 110.037 53.9243 116.322 53.9243Z" fill="#54B9C3"/>
<path fill-rule="evenodd" clip-rule="evenodd" d="M96.0213 47.0548C98.6228 47.0548 100.743 44.9357 100.743 42.3328C100.743 39.7327 98.6214 37.6108 96.0213 37.6108C93.4184 37.6108 91.2993 39.7327 91.2993 42.3328C91.2979 44.9357 93.4184 47.0548 96.0213 47.0548Z" fill="#54B9C3"/>
<path fill-rule="evenodd" clip-rule="evenodd" d="M81.8523 48.5875C83.5089 48.5875 84.858 47.2383 84.858 45.5832C84.858 43.9267 83.5089 42.579 81.8523 42.579C80.1958 42.579 78.8452 43.9267 78.8452 45.5832C78.8452 47.2383 80.1972 48.5875 81.8523 48.5875Z" fill="#54B9C3"/>
<path fill-rule="evenodd" clip-rule="evenodd" d="M122.823 29.4945C123.824 29.4945 124.646 28.6777 124.646 27.6743C124.646 26.6696 123.824 25.8513 122.823 25.8513C121.818 25.8513 121 26.6696 121 27.6743C121 28.6777 121.818 29.4945 122.823 29.4945Z" fill="#54B9C3"/>
<path fill-rule="evenodd" clip-rule="evenodd" d="M116.322 48.8451C119.806 48.8451 122.651 46.0031 122.651 42.5163C122.651 39.0325 119.806 36.189 116.322 36.189C112.835 36.189 109.993 39.0325 109.993 42.5163C109.992 46.0031 112.835 48.8451 116.322 48.8451Z" fill="#A9D1C1"/>
</svg>
