<svg width="150" height="150" viewBox="0 0 150 150" fill="none" xmlns="http://www.w3.org/2000/svg">
<path fill-rule="evenodd" clip-rule="evenodd" d="M53.6441 3.12535C13.9484 14.9189 -8.6695 56.658 3.12548 96.3563C14.919 136.05 56.6597 158.67 96.3539 146.875C136.052 135.08 158.67 93.3392 146.874 53.6437C135.079 13.9497 93.3397 -8.66958 53.6441 3.12535Z" fill="#EA5F4C"/>
<path fill-rule="evenodd" clip-rule="evenodd" d="M137.049 61.2617C137.049 100.675 105.093 132.629 65.6782 132.629C38.381 132.629 14.6672 117.308 2.66162 94.795C11.3442 126.601 40.4417 149.978 74.9998 149.978C116.41 149.978 149.981 116.408 149.981 75.0007C149.981 50.5285 138.257 28.7944 120.118 15.1081C130.679 27.552 137.049 43.6633 137.049 61.2617Z" fill="#D04146"/>
<path fill-rule="evenodd" clip-rule="evenodd" d="M19.8572 60.1447C18.9934 63.0849 15.9095 64.7684 12.9693 63.9046C10.029 63.0407 8.3469 59.9554 9.20932 57.0152C11.9517 47.7976 16.6025 39.31 22.6822 31.9908C28.8387 24.5777 36.4567 18.3728 45.0354 13.833C47.7479 12.4056 51.1051 13.4474 52.5339 16.1584C53.9613 18.8709 52.921 22.2281 50.21 23.6569C42.8936 27.5279 36.4183 32.7963 31.2011 39.0752C26.0806 45.2345 22.167 52.3815 19.8572 60.1447ZM65.3991 18.0313C62.4105 18.703 59.4419 16.8245 58.7716 13.8373C58.0984 10.8487 59.977 7.88007 62.9656 7.20836C64.4357 6.87961 65.9783 6.58503 67.5922 6.33171C69.1263 6.08978 70.6761 5.89622 72.2387 5.75391C75.2871 5.47924 77.9825 7.72637 78.2572 10.7747C78.5333 13.8231 76.2847 16.5185 73.2378 16.7946C71.9071 16.9156 70.5893 17.0806 69.2871 17.287C68.0305 17.482 66.7326 17.7324 65.3991 18.0313Z" fill="#F29F6D"/>
<path fill-rule="evenodd" clip-rule="evenodd" d="M63.7131 142.81C69.9977 142.81 75.121 137.684 75.121 131.402C75.121 125.119 69.9977 119.995 63.7131 119.995C57.4328 119.995 52.3081 125.119 52.3081 131.402C52.3081 137.685 57.4328 142.81 63.7131 142.81Z" fill="#D04146"/>
<path fill-rule="evenodd" clip-rule="evenodd" d="M81.3184 126.78C85.0271 126.78 88.0513 123.759 88.0513 120.05C88.0513 116.344 85.0271 113.32 81.3184 113.32C77.6126 113.32 74.5884 116.344 74.5884 120.05C74.587 123.759 77.6111 126.78 81.3184 126.78Z" fill="#D04146"/>
<path fill-rule="evenodd" clip-rule="evenodd" d="M48.1376 126.673C49.4497 126.673 50.5213 125.6 50.5213 124.289C50.5213 122.975 49.4497 121.903 48.1376 121.903C46.8226 121.903 45.751 122.975 45.751 124.289C45.751 125.6 46.8226 126.673 48.1376 126.673Z" fill="#D04146"/>
<path fill-rule="evenodd" clip-rule="evenodd" d="M132.972 79.9845C140.225 79.9845 146.141 74.0686 146.141 66.8148C146.141 59.5597 140.225 53.6437 132.972 53.6437C125.717 53.6437 119.803 59.5597 119.803 66.8148C119.803 74.0686 125.719 79.9845 132.972 79.9845Z" fill="#D04146"/>
<path fill-rule="evenodd" clip-rule="evenodd" d="M132.973 74.6663C137.296 74.6663 140.823 71.1383 140.823 66.8149C140.823 62.49 137.296 58.9634 132.973 58.9634C128.648 58.9634 125.121 62.49 125.121 66.8149C125.123 71.1383 128.649 74.6663 132.973 74.6663Z" fill="#EA5F4C"/>
<path fill-rule="evenodd" clip-rule="evenodd" d="M121.811 93.6779C125.054 93.6779 127.698 91.0323 127.698 87.7876C127.698 84.5457 125.054 81.9001 121.811 81.9001C118.567 81.9001 115.92 84.5442 115.92 87.7876C115.92 91.0323 118.567 93.6779 121.811 93.6779Z" fill="#D04146"/>
<path fill-rule="evenodd" clip-rule="evenodd" d="M134.751 50.87C136.879 50.87 138.615 49.1324 138.615 47.0048C138.615 44.8772 136.879 43.141 134.751 43.141C132.622 43.141 130.886 44.8772 130.886 47.0048C130.886 49.1324 132.622 50.87 134.751 50.87Z" fill="#D04146"/>
<path fill-rule="evenodd" clip-rule="evenodd" d="M112.907 128.639C119.963 128.639 125.717 122.885 125.717 115.829C125.717 108.773 119.963 103.019 112.907 103.019C105.851 103.019 100.098 108.773 100.098 115.829C100.098 122.885 105.853 128.639 112.907 128.639Z" fill="#EA5F4C"/>
<path d="M100.833 134.402C102.865 134.402 104.513 132.755 104.513 130.722C104.513 128.69 102.865 127.042 100.833 127.042C98.8 127.042 97.1523 128.69 97.1523 130.722C97.1523 132.755 98.8 134.402 100.833 134.402Z" fill="#EA5F4C"/>
<path fill-rule="evenodd" clip-rule="evenodd" d="M128.19 108.766C129.202 108.766 130.03 107.941 130.03 106.927C130.03 105.913 129.203 105.087 128.19 105.087C127.177 105.087 126.351 105.913 126.351 106.927C126.35 107.941 127.175 108.766 128.19 108.766Z" fill="#EA5F4C"/>
<path fill-rule="evenodd" clip-rule="evenodd" d="M118.498 102.812C119.811 102.812 120.882 101.737 120.882 100.425C120.882 99.1115 119.811 98.0399 118.498 98.0399C117.183 98.0399 116.112 99.1115 116.112 100.425C116.113 101.737 117.185 102.812 118.498 102.812Z" fill="#D04146"/>
<path fill-rule="evenodd" clip-rule="evenodd" d="M16.5132 83.0201C17.8253 83.0201 18.8969 81.9513 18.8969 80.6363C18.8969 79.3228 17.8253 78.2512 16.5132 78.2512C15.201 78.2512 14.1294 79.3228 14.1294 80.6363C14.1294 81.9513 15.201 83.0201 16.5132 83.0201Z" fill="#F29F6D"/>
<path fill-rule="evenodd" clip-rule="evenodd" d="M34.8245 111.195C42.7214 111.195 49.1626 104.756 49.1626 96.8587C49.1626 88.9603 42.7214 82.5192 34.8245 82.5192C26.9289 82.5192 20.4863 88.9603 20.4863 96.8587C20.4863 104.754 26.9275 111.195 34.8245 111.195Z" fill="#F29F6D"/>
<path fill-rule="evenodd" clip-rule="evenodd" d="M34.8245 106.929C40.3733 106.929 44.8975 102.403 44.8975 96.8572C44.8975 91.3098 40.3733 86.7842 34.8245 86.7842C29.2771 86.7842 24.7529 91.3098 24.7529 96.8572C24.7515 102.405 29.2771 106.929 34.8245 106.929Z" fill="#EA5F4C"/>
<path fill-rule="evenodd" clip-rule="evenodd" d="M108.021 49.4199C110.962 49.4199 113.36 47.0205 113.36 44.0818C113.36 41.1416 110.962 38.7422 108.021 38.7422C105.081 38.7422 102.683 41.1401 102.683 44.0818C102.683 47.0219 105.081 49.4199 108.021 49.4199Z" fill="#F29F6D"/>
<path fill-rule="evenodd" clip-rule="evenodd" d="M62.6809 62.0388C65.6211 62.0388 68.0206 59.6394 68.0206 56.6992C68.0206 53.759 65.6211 51.3596 62.6809 51.3596C59.7407 51.3596 57.3413 53.759 57.3413 56.6992C57.3413 59.6394 59.7407 62.0388 62.6809 62.0388Z" fill="#F29F6D"/>
<path fill-rule="evenodd" clip-rule="evenodd" d="M63.2929 27.8424C64.763 27.8424 65.9627 26.6427 65.9627 25.174C65.9627 23.7039 64.763 22.5028 63.2929 22.5028C61.8228 22.5028 60.623 23.7039 60.623 25.174C60.623 26.6427 61.8242 27.8424 63.2929 27.8424Z" fill="#F29F6D"/>
<path fill-rule="evenodd" clip-rule="evenodd" d="M83.8414 82.2573C87.8603 82.2573 91.1378 78.9798 91.1378 74.9609C91.1378 70.9448 87.8603 67.6673 83.8414 67.6673C79.8239 67.6673 76.5464 70.9448 76.5464 74.9609C76.5464 78.9798 79.8253 82.2573 83.8414 82.2573Z" fill="#F29F6D"/>
<path fill-rule="evenodd" clip-rule="evenodd" d="M116.392 12.4824C113.978 17.0023 109.217 20.0791 103.735 20.0791C95.8148 20.0791 89.3965 13.6593 89.3965 5.74102C89.3965 4.27662 89.6171 2.86344 90.0255 1.52997C99.4652 3.4697 108.417 7.20829 116.392 12.4824Z" fill="#F29F6D"/>
<path fill-rule="evenodd" clip-rule="evenodd" d="M112.757 10.224C111.107 13.5356 107.687 15.814 103.736 15.814C98.1745 15.814 93.6646 11.3041 93.6646 5.74109C93.6646 4.60969 93.8496 3.52243 94.1954 2.50916C100.712 4.24253 106.957 6.84545 112.757 10.224Z" fill="#EA5F4C"/>
</svg>
