<svg width="158" height="158" viewBox="0 0 158 158" fill="none" xmlns="http://www.w3.org/2000/svg">
<g filter="url(#filter0_d_8_815)">
<path d="M14.6336 90.8322L14.6266 90.9234C14.6613 90.8225 14.6702 90.8096 14.6838 90.6837C14.6857 90.6698 14.6791 90.6563 14.6768 90.6424L14.6552 90.6976L14.6336 90.8322ZM29.6283 36.1221L29.549 36.1832C29.755 36.1361 29.6335 36.175 29.9028 36.0318L29.9253 35.9794L29.815 36.0126L29.6283 36.1221ZM61.1349 137.6L62.8146 138.124C63.5526 137.424 64.3629 136.81 65.2139 136.263C66.3535 135.529 67.723 135.268 69.0437 135.532C78.3155 137.465 88.5889 137.412 97.6176 134.338C98.7934 133.938 100.07 133.972 101.223 134.436C102.351 134.898 101.706 134.62 103.148 135.297C105.481 134.047 107.876 132.914 110.334 131.946L110.355 131.816C110.83 130.101 110.6 130.779 110.97 129.756C111.361 128.675 112.078 127.75 113.018 127.115C118.031 123.892 122.51 119.805 126.315 115.167C127.68 113.503 129.004 110.909 131.347 110.532C132.12 109.305 131.695 109.954 132.629 108.595C132.351 107.462 132.488 106.397 132.852 105.305C133.194 104.278 133.92 103.182 134.365 102.239C135.185 100.5 135.922 98.7202 136.572 96.9076C139.091 89.892 140.238 82.4882 140.093 75.0238C140.07 73.8252 140.435 72.6525 141.132 71.6897C141.626 70.9768 142.178 70.3099 142.77 69.6816C142.561 68.2643 142.666 69.0517 142.473 67.3179L142.463 67.2035L142.374 67.1569C140.953 66.246 141.512 66.6438 140.662 66.0159C139.6 65.2314 138.86 64.0726 138.585 62.7625C136.329 51.341 130.259 41.1132 122.242 32.9633C121.415 32.1221 120.882 31.0248 120.726 29.842C120.31 27.095 120.697 24.3436 121.374 21.6797C121.112 21.4664 121.246 21.5682 120.972 21.3746C118.929 22.8495 116.557 23.7388 114.135 24.3052C112.86 24.6031 111.524 24.4075 110.381 23.7561C104.418 20.1385 97.7973 17.7546 90.9667 16.5886C89.7914 16.3883 88.717 15.7873 87.9166 14.8831C87.7946 14.7462 87.6726 14.6083 87.5516 14.4709C87.5375 14.4541 87.523 14.4373 87.5084 14.42C86.6972 13.4092 85.9817 12.3124 85.4258 11.1335C84.5733 10.9168 83.7006 10.874 82.8285 10.8716L82.3996 10.886C81.6945 12.2663 80.6857 13.4606 79.5719 14.5113C78.7162 15.3146 77.6268 15.808 76.4707 15.9151C64.5167 16.7698 53.0202 21.5822 43.7034 29.2809C42.2931 30.4459 41.1966 31.4442 39.8783 32.7183C37.3086 35.1997 36.8531 36.936 33.1837 37.4351C31.9657 37.3928 30.7646 37.1599 29.5814 36.875C30.2406 38.3609 30.5873 39.9564 30.8463 41.5591C31.0405 42.7659 30.8313 44.0049 30.2509 45.0743C24.0461 55.7671 21.0378 68.1327 21.9996 80.5598C22.093 81.7709 21.7866 82.9796 21.1298 83.9909C19.3108 86.8326 17.3267 89.6503 14.6313 91.6926C14.7096 92.8076 15.0029 93.8857 15.42 94.9148C16.6112 94.8557 16.0491 94.8672 17.1076 94.8672C17.268 94.8672 17.4285 94.8754 17.5875 94.8898C19.0739 94.97 20.5372 95.2371 22.0043 95.4716C23.8364 95.7632 25.3856 97.0147 26.0893 98.7711C31.3361 112.45 41.632 123.58 54.3203 130.311C55.2525 130.806 56.0201 131.573 56.5253 132.516L56.6131 132.679C56.6577 132.761 56.6999 132.846 56.7393 132.93C57.3666 134.212 57.9348 135.522 58.3608 136.888L59.3784 137.125L61.1349 137.6ZM121.996 22.4551L122.094 22.5444C122.09 22.5161 122.094 22.4858 122.083 22.4604C122.01 22.3085 121.929 22.2322 121.821 22.1082L121.996 22.4551ZM64.8302 150L64.2385 149.971L63.6403 149.98C60.3458 149.033 57.201 147.137 53.6705 147.096L53.7779 147.105C50.8545 147.122 48.4711 144.709 48.4538 141.715C48.4533 141.632 48.4547 141.549 48.4585 141.466C48.5382 140.621 48.2065 139.836 47.8668 139.083C34.9023 131.992 24.7475 120.676 18.136 107.32C17.8831 106.811 17.6692 106.286 17.4444 105.762L16.8678 105.71H16.3635C15.0118 105.791 15.5603 105.731 14.7134 105.84C14.5985 105.853 14.483 105.862 14.3671 105.867L14.1879 105.875C12.6345 105.895 11.15 105.45 9.84152 104.595C5.08367 101.484 2.3578 91.4745 5.08227 86.2898C5.61572 85.2737 6.31995 84.5266 7.17243 83.793C7.29629 83.6998 7.42295 83.6123 7.55432 83.5307C9.1556 82.577 10.2764 81.0219 11.3175 79.4946C10.6138 67.7229 13.2102 55.9828 18.0694 45.3453C18.0844 45.3131 18.0994 45.2804 18.1149 45.2482C18.6962 43.9977 19.3694 42.7947 20.0296 41.586C19.9212 41.2194 19.7518 40.8874 19.5224 40.5881L19.5332 40.6242C14.6083 33.9833 24.3764 22.6756 31.421 26.0328C41.9098 15.1752 55.6217 8.2581 70.2566 5.67824L70.3194 5.66768C71.2915 5.50434 72.2735 5.41354 73.2546 5.3261C73.9776 3.47215 75.4798 1.97226 77.2463 1.15026C82.2725 -1.18843 93.2539 -0.195884 94.9382 6.3124C100.559 7.38566 105.955 9.40295 111.132 11.8512L111.181 11.8752C112.011 12.2725 112.812 12.7275 113.61 13.1863C114.387 12.836 115.259 12.4488 115.807 11.7493C116.284 11.2795 116.844 10.9067 117.456 10.6492C124.242 7.92567 134.086 15.9333 131.913 23.3948L131.948 23.3102C131.594 24.443 131.247 25.6004 131.165 26.7933C139.413 35.4971 145.509 46.3057 148.392 58.0885C148.519 58.1361 148.659 58.1557 148.791 58.1812C151.484 58.7765 153.28 61.3856 152.923 64.1822C152.929 66.1629 153.071 68.2499 153.688 70.1418L153.691 70.1351C154.643 72.8691 153.325 75.8862 150.698 76.9782C150.593 87.3246 148.372 97.7791 143.841 107.063L143.882 107.138C144.015 107.645 144.244 108.135 144.28 108.658C144.38 110.11 144.178 110.955 143.512 112.165C143.189 112.753 142.747 113.136 142.277 113.569C141.201 114.558 139.891 116.702 139.365 118.075L139.383 118.043C138.641 119.966 137.009 121.307 134.977 121.439C131.429 125.96 127.234 129.895 122.767 133.441L122.722 133.475C122.028 134.02 121.299 134.515 120.568 135.006L120.567 135.04C120.58 135.179 120.593 135.318 120.605 135.457C120.614 135.475 120.623 135.493 120.632 135.511C120.844 138.148 119.167 140.556 116.664 141.208C113.017 142.422 109.256 143.854 106.076 146.099C103.923 147.734 100.912 147.453 99.0758 145.448L98.9177 145.276C93.1389 147.007 87.1101 147.5 81.1188 147.684C81.0784 147.685 81.0381 147.686 80.9977 147.686L80.1809 147.692C76.5772 147.713 72.9998 147.25 69.4543 146.639C68.4188 148.064 67.4673 149.276 65.7385 149.773C65.0385 149.975 65.3988 149.951 65.0028 149.958L64.8302 150ZM86.396 11.4606L86.4819 11.487C86.4049 11.4135 86.2961 11.3847 86.1999 11.3467L86.396 11.4606Z" fill="white"/>
<path d="M80.9623 142.265C45.364 142.265 16.5059 112.715 16.5059 76.2628C16.5059 39.8108 45.364 10.2605 80.9623 10.2605C116.561 10.2605 145.419 39.8108 145.419 76.2628C145.419 112.715 116.561 142.265 80.9623 142.265ZM80.9623 138.082C114.304 138.082 141.333 110.405 141.333 76.2628C141.333 42.1212 114.305 14.4435 80.9623 14.4435C47.6207 14.4435 20.5914 42.1207 20.5914 76.2628C20.5914 110.405 47.6203 138.082 80.9623 138.082Z" fill="#464646"/>
<path d="M80.962 140.173C46.4917 140.173 18.5488 111.559 18.5488 76.2633C18.5488 40.9658 46.4921 12.3528 80.962 12.3528C115.433 12.3528 143.376 40.9662 143.376 76.2633C143.376 111.559 115.432 140.173 80.962 140.173Z" fill="#B2B2B2"/>
<path d="M66.1621 16.653C72.3927 14.6141 77.9885 9.22473 78.2005 7.24635C80.1565 7.82526 86.7784 8.21152 89.8181 7.68065C89.8181 8.69338 92.3455 13.9343 100.15 16.5214C107.953 19.1099 59.9315 18.6924 66.1621 16.653Z" fill="#B2B2B2"/>
<path d="M25.3522 49.6801C26.6678 45.0628 25.386 38.9927 24.1094 37.8027C25.3668 37.0124 28.5332 33.4851 29.4964 31.4832C30.1978 32.0309 34.9327 33.4371 40.1404 30.4325C45.3492 27.4279 24.0362 54.297 25.3522 49.6801Z" fill="#B2B2B2"/>
<path d="M138.81 56.125C141.16 60.3412 146.084 63.6128 147.674 63.4793C147.448 64.9801 147.925 69.8319 148.705 71.9568C147.903 72.1039 144.058 74.6938 142.934 80.7212C141.81 86.7495 136.46 51.9078 138.81 56.125Z" fill="#464646"/>
<path d="M105.276 19.7738C110.761 20.6031 118.028 17.6283 119.47 15.66C120.391 17.1949 124.542 20.7457 126.913 21.6355C126.247 22.6953 124.481 29.3741 127.972 35.7892C131.462 42.2038 99.7903 18.9437 105.276 19.7738Z" fill="#B2B2B2"/>
<path d="M33.2683 106.494C27.7185 101.445 17.2686 99.326 14.1458 100.451C14.2767 98.0385 12.3011 90.9388 10.3062 88.161C11.8633 87.4726 18.9333 81.3059 19.881 71.4918C20.8287 61.6773 38.8172 111.542 33.2683 106.494Z" fill="#B2B2B2"/>
<path d="M136.41 97.7195C135.645 102.424 137.619 108.264 139.021 109.291C137.869 110.215 135.145 114.057 134.424 116.141C133.666 115.682 128.816 114.836 124.011 118.396C119.206 121.956 137.176 93.0147 136.41 97.7195Z" fill="#464646"/>
<path d="M46.3314 127.901C51.1859 131.946 54.2683 139.463 53.748 141.684C55.7105 141.624 61.7868 143.136 64.3222 144.604C64.6862 143.498 68.8346 138.517 76.7627 137.973C84.6907 137.429 41.4764 123.855 46.3314 127.901Z" fill="#464646"/>
<path d="M85.988 137.837C93.5886 137.016 101.888 139.852 102.936 141.742C104.819 140.259 111.84 136.822 115.356 135.956C114.936 134.938 115.508 128.513 122.901 122.321C130.293 116.128 78.3875 138.658 85.988 137.837Z" fill="#464646"/>
<path d="M63.7852 35.5672C60.615 36.8322 57.784 37.1695 57.4603 36.3201C57.1375 35.4707 59.4444 33.7565 62.6137 32.4911C65.7834 31.2262 68.6148 30.8889 68.9376 31.7378C69.2618 32.5872 66.9544 34.3018 63.7852 35.5672Z" fill="#2A2A2A"/>
<path d="M57.1084 36.4815C57.3964 36.4848 57.6854 36.507 57.973 36.4906C59.9722 36.3796 62.4663 35.5841 64.3068 34.7592C65.8415 34.0712 67.3916 33.3102 68.6936 32.2115C69.0924 31.8747 70.0654 31.0148 69.813 30.3518C69.7877 30.285 69.7562 30.2149 69.7023 30.1692C69.1407 29.6946 68.4412 29.7657 67.7599 29.7589C67.4132 29.7964 67.0641 29.8195 66.7188 29.8728C64.4443 30.2293 62.1651 31.0729 60.1003 32.1077C59.0296 32.6443 57.9632 33.2588 57.0403 34.0376C56.6411 34.3744 55.668 35.2343 55.9204 35.8973C56.0213 36.1615 56.2001 36.187 56.4511 36.3465L57.1084 36.4815ZM51.7134 42.6741C51.7134 42.6741 54.6452 39.9045 53.6679 36.7015C53.9175 36.0577 53.9523 35.9016 54.4125 35.2021C56.2573 32.3969 59.8863 30.4805 62.9228 29.4942C65.7866 28.5651 69.0628 28.0717 71.8994 29.3405C73.077 32.1947 77.5285 32.0678 77.5285 32.0678C77.5285 32.0678 73.2281 32.9994 70.9203 32.2802C69.9936 33.1771 70.4849 32.7433 69.4419 33.5773C69.5873 34.2067 70.042 34.4503 70.5872 34.6266C70.7701 34.6616 70.5501 34.8495 70.415 34.8067C69.8543 34.654 69.3635 34.3551 68.8972 34.0131C67.7477 34.9571 66.3806 35.5629 65.0716 36.2211L65.1011 36.3767C65.2766 37.5514 65.3184 38.7284 65.2217 39.9083C65.1973 40.1384 64.7263 40.4618 64.7896 40.1716C65.0017 38.9388 64.4514 37.7186 63.7307 36.7524C62.3054 37.39 60.7717 37.6797 59.2576 37.9862C59.1966 38.5353 59.024 39.0561 58.8588 39.5778C58.8265 39.6648 58.6168 39.6393 58.6712 39.5326C58.8804 39.057 58.7528 38.5497 58.5417 38.1015C56.4056 38.3277 57.3481 38.2744 55.7182 38.3201C54.4693 41.2944 51.7134 42.6741 51.7134 42.6741Z" fill="#464646"/>
<path d="M80.9622 140.173C76.2226 140.172 71.4863 139.628 66.8669 138.537C49.8093 134.508 34.6776 122.891 26.3076 107.114C34.2746 115.382 39.8117 114.757 50.217 117.692C55.5773 119.204 58.6381 118.458 64.1082 116.396C74.8588 112.342 75.2092 119.666 79.1207 118.879C90.6801 116.556 87.1496 117.121 95.4656 109.24C95.4656 109.24 106.531 105.213 108.38 100.943C110.229 96.6712 112.346 90.4459 114.837 86.8687C118.003 82.321 125.093 81.2895 127.019 75.966C129.52 69.0508 129.444 63.9727 129.444 56.1668C129.489 45.3655 130.577 41.0345 125.556 31.5692C134.305 40.5949 140.222 52.443 142.401 64.9499C143.054 68.6952 143.329 72.4637 143.376 76.2633C143.376 111.559 115.432 140.173 80.9622 140.173Z" fill="#464646"/>
<path d="M33.8967 106.854C33.9047 106.854 33.6194 106.779 33.2666 106.494C27.7177 101.446 18.6473 99.6791 14.1451 100.451C10.3054 100.79 7.85539 89.8021 10.3054 88.161C11.8546 87.5047 18.932 81.3063 19.8797 71.4918C20.8101 74.2369 20.9269 74.8081 18.7913 79.8002C17.0783 83.8031 14.7423 87.4183 13.4212 88.113C13.6252 88.3959 13.8068 88.6549 13.9987 88.984C14.0508 89.0743 17.7929 87.3928 20.0932 84.3623C19.5091 87.093 14.641 90.1149 14.6856 90.1985C14.9657 90.7284 15.1918 91.2347 15.3828 91.7353C15.4682 91.9587 19.5748 90.7832 19.648 91.0061C19.6916 91.1401 15.7051 92.6722 15.7454 92.8072C15.9786 93.5888 16.1597 94.3926 16.3586 95.2914C16.4215 95.5744 24.5006 94.2912 27.8524 96.7284C24.4143 95.8992 16.6307 96.7663 16.6655 97.0661C16.7297 97.6104 16.5275 97.7992 16.5055 98.2071C19.1507 98.4127 22.265 98.7596 24.4734 99.6171C24.4734 99.6171 30.026 102.098 33.8967 106.854Z" fill="#464646"/>
<path d="M25.4344 50.2144L25.3105 50.1279C25.3049 49.807 25.2871 49.9559 25.3518 49.6796C26.6678 45.0623 25.0661 38.5905 23.789 37.401C22.237 35.4471 26.6449 30.3576 29.1493 30.9062C29.8512 31.4539 34.9323 33.437 40.1405 30.4325C40.4708 30.2576 40.2855 30.3403 40.7035 30.2009L40.8992 30.2466C40.9203 30.3105 40.962 30.371 40.962 30.4387C39.3898 32.3354 37.4006 33.5879 34.3275 33.8637C33.0518 33.8445 30.7552 33.9002 29.7958 33.3751C29.6382 33.7027 29.4646 34.0198 29.2788 34.3258C29.1756 34.4954 33.5238 35.8243 37.7191 37.2165C34.6958 37.4563 28.7439 35.1339 28.6323 35.2838C28.4286 35.5562 27.8797 36.1976 27.6653 36.4411C27.4298 36.7083 29.7113 39.3996 30.2959 43.4505C29.4007 41.1666 26.9371 37.1209 26.7631 37.2636C26.5055 37.475 26.2526 37.658 26.0105 37.8103C26.4464 38.321 26.7058 39.1022 26.8743 39.9535C26.8743 39.9535 27.1501 42.0486 27.1886 42.4757C27.578 47.7618 26.1292 49.8492 25.668 50.1457L25.4344 50.2144Z" fill="#464646"/>
<path d="M49.6488 105.235C51.9858 107.767 53.3544 110.327 52.7078 110.953C52.0609 111.579 49.6428 110.034 47.3063 107.501C44.9698 104.97 43.6008 102.409 44.2478 101.783C44.8947 101.157 47.3129 102.703 49.6488 105.235Z" fill="#2A2A2A"/>
<path d="M52.9868 111.227C52.8812 110.952 52.7926 110.67 52.6697 110.402C51.8181 108.548 50.1605 106.48 48.7221 105.043C47.5229 103.846 46.2514 102.661 44.7679 101.838C44.3137 101.587 43.1694 100.987 42.6646 101.475C42.6139 101.524 42.5618 101.58 42.5407 101.649C42.3221 102.359 42.6496 102.997 42.8992 103.646C43.0648 103.96 43.2159 104.284 43.3946 104.591C44.5722 106.615 46.1927 108.461 47.9043 110.031C48.7929 110.845 49.7495 111.626 50.8009 112.209C51.256 112.461 52.3994 113.061 52.9047 112.573C53.106 112.379 53.0614 112.2 53.1111 111.902L52.9868 111.227ZM60.6188 114.018C60.6188 114.018 57.0109 112.277 54.4797 114.407C53.8032 114.413 53.6483 114.439 52.8428 114.265C49.6107 113.568 46.5122 110.845 44.4784 108.334C42.5609 105.966 40.8836 103.043 40.9653 99.8747C43.1061 97.6844 41.3185 93.5081 41.3185 93.5081C41.3185 93.5081 43.7775 97.2391 43.9938 99.6988C45.155 100.241 44.5769 99.9376 45.7241 100.614C46.2387 100.239 46.2889 99.7166 46.243 99.1329C46.2068 98.9465 46.4583 99.0848 46.471 99.229C46.5432 99.8185 46.4574 100.396 46.3232 100.967C47.6092 101.703 48.6714 102.773 49.7589 103.768L49.8889 103.681C50.8863 103.073 51.9349 102.592 53.0389 102.239C53.2571 102.176 53.7267 102.501 53.4396 102.551C52.2441 102.812 51.3475 103.793 50.7437 104.841C51.8561 105.953 52.6945 107.299 53.5418 108.621C54.0612 108.473 54.5975 108.441 55.1319 108.402C55.2229 108.4 55.2782 108.608 55.1614 108.596C54.6524 108.577 54.2414 108.888 53.9153 109.257C54.9226 111.199 54.5205 110.325 55.1741 111.854C58.3344 111.922 60.6188 114.018 60.6188 114.018Z" fill="#464646"/>
<path d="M88.099 9.76952C87.7588 9.81852 87.4257 9.85744 87.0987 9.88675C86.76 9.91702 88.8093 15.2305 90.434 16.7352C88.06 15.8819 86.3626 10.0155 86.0933 10.0121C84.8078 9.99628 82.5243 9.74646 81.395 9.53027C81.1247 9.47839 80.6171 12.8317 78.8061 15.4668C79.4766 13.438 80.4492 9.31025 80.2399 9.26077C79.9814 9.19927 79.7252 9.13537 79.4709 9.07099C79.1669 10.5468 75.004 13.5096 73.3562 14.5074C70.0613 16.5022 66.2699 17.3977 65.9199 17.2612C65.8204 17.2223 65.7341 17.1536 65.6417 17.0998L65.6313 16.9283C65.7238 16.8678 65.8106 16.7976 65.9086 16.7467C65.9884 16.7049 66.0766 16.6823 66.1611 16.6521C66.5477 16.5118 66.9427 16.3941 67.3208 16.2322C68.079 15.9084 68.8358 15.5778 69.5677 15.1964C71.6048 14.1356 73.5214 12.7895 75.2278 11.2348C76.0671 10.47 76.6639 9.83534 77.3376 8.96338C77.7256 8.46086 78.0841 7.88386 78.1999 7.24586C79.0229 5.59897 81.6066 5.40202 83.7005 5.46111C85.4904 5.51155 89.4 6.15194 89.8175 7.68016C89.9447 8.75486 90.8431 10.0823 91.499 10.8615C93.3213 13.0263 95.5381 14.6045 98.0904 15.7296C98.5324 15.9237 98.9818 16.0981 99.4322 16.2711C100.088 16.5233 100.295 16.5435 100.889 16.8658L101.008 17.0734C100.955 17.1373 100.919 17.2204 100.85 17.2641C100.359 17.5764 96.933 16.5334 95.1637 15.8901C93.3054 15.2142 92.6368 14.9408 88.099 9.76952Z" fill="#464646"/>
<path d="M65.8472 84.8504C59.2812 84.8504 53.958 79.4509 53.958 72.7899C53.958 66.1288 59.2812 60.7294 65.8472 60.7294C72.4133 60.7294 77.7365 66.1283 77.7365 72.7899C77.7365 79.4514 72.4133 84.8504 65.8472 84.8504Z" fill="#7D7D7D"/>
<path d="M127.95 36.899C125.289 33.4654 124.964 31.6042 124.275 28.3076C124.107 27.5038 124.552 23.3564 124.946 22.5973C124.723 22.5142 124.499 22.4176 124.273 22.31C124.107 22.2317 121.676 27.0782 121.227 29.168C120.722 27.0109 123.64 22.0587 123.376 21.8896C122.932 21.6052 122.346 21.1555 121.775 20.6842C121.653 20.5829 119.425 23.1959 119.305 23.094C119.207 23.01 121.214 20.212 121.12 20.1298C120.742 19.8002 120.402 19.4899 120.155 19.2473C120.008 19.1012 115.77 22.6746 113.197 22.7034C115.296 21.9175 119.613 18.6876 119.504 18.5593C119.231 18.237 119.149 18.0871 118.98 17.806C117.778 19.1877 112.516 20.6838 109.686 20.9235C108.836 20.9956 104.94 21.157 104.635 19.9939L104.742 19.8094C105.123 19.7364 104.945 19.7412 105.276 19.7729C110.761 20.6021 118.028 17.6273 119.47 15.659C121.727 14.6035 127.661 18.739 126.913 21.6345C126.247 22.6938 124.481 29.3732 127.972 35.7882C128.169 36.163 128.275 36.3254 128.181 36.7736L127.95 36.899Z" fill="#464646"/>
<path d="M116.582 47.5547C114.858 45.7873 113.745 43.9881 114.097 43.536C114.45 43.0835 116.133 44.149 117.859 45.9165C119.583 47.6835 120.696 49.4827 120.343 49.9347C119.99 50.3873 118.307 49.3213 116.582 47.5547Z" fill="#2A2A2A"/>
<path d="M113.895 43.3448C113.988 43.5384 114.071 43.7373 114.174 43.9251C114.89 45.2305 116.14 46.6775 117.19 47.6787C118.066 48.5127 118.986 49.3381 120.007 49.9026C120.32 50.075 121.104 50.4867 121.379 50.1332C121.407 50.0981 121.435 50.0577 121.441 50.0082C121.513 49.5009 121.245 49.0527 121.025 48.5958C120.89 48.3743 120.763 48.1466 120.621 47.9309C119.681 46.5098 118.477 45.2199 117.239 44.1274C116.598 43.561 115.916 43.0186 115.192 42.6184C114.879 42.4454 114.095 42.0342 113.82 42.3873C113.71 42.5286 113.756 42.6549 113.752 42.8668L113.895 43.3448ZM108.778 41.4606C108.778 41.4606 111.237 42.6506 112.645 41.106C113.074 41.0945 113.171 41.0738 113.699 41.1863C115.82 41.6393 118.047 43.5331 119.578 45.2886C121.02 46.9446 122.363 48.9979 122.61 51.2468C121.456 52.8283 122.987 55.7695 122.987 55.7695C122.987 55.7695 121.071 53.1536 120.701 51.4101C119.912 51.0407 120.308 51.2482 119.515 50.7827C119.223 51.0546 119.24 51.4269 119.325 51.8406C119.366 51.9717 119.192 51.8771 119.171 51.7748C119.07 51.3578 119.07 50.946 119.101 50.5396C118.214 50.0332 117.437 49.2876 116.652 48.5963L116.577 48.6587C116.001 49.1031 115.379 49.4582 114.711 49.7219C114.578 49.77 114.249 49.5451 114.427 49.5062C115.162 49.3054 115.639 48.5977 115.924 47.8468C115.112 47.0714 114.451 46.1269 113.788 45.1997C113.471 45.3116 113.134 45.341 112.798 45.376C112.741 45.3784 112.686 45.2309 112.761 45.2381C113.087 45.2458 113.318 45.0191 113.491 44.7534C112.668 43.3876 113.006 44.003 112.446 42.9259C110.429 42.9191 108.778 41.4606 108.778 41.4606Z" fill="#464646"/>
<path d="M64.7249 84.8509C57.5391 84.8509 51.7134 79.0599 51.7134 71.9179C51.7134 64.7755 57.5391 58.985 64.7249 58.985C71.9102 58.985 77.7359 64.7755 77.7359 71.9179L77.7223 72.4757L77.7214 72.4421C77.6163 71.3895 77.6299 71.1243 77.3723 70.1C76.3378 65.9823 73.0883 62.6732 69.0685 61.6191C68.116 61.3698 67.1594 61.2732 66.1802 61.2478C59.7981 61.2478 54.6246 66.5314 54.6246 73.0488C54.6476 77.5504 57.1975 81.7334 61.1704 83.6868C62.5991 84.3892 63.9231 84.6631 65.4845 84.8245L65.3944 84.8341L64.7249 84.8509Z" fill="#CACACA"/>
<path d="M82.3805 60.7289C78.8523 60.7289 75.9932 57.952 75.9932 54.5261C75.9932 51.1003 78.8528 48.3234 82.3805 48.3234C85.9081 48.3234 88.7677 51.1003 88.7677 54.5261C88.7682 57.9516 85.9081 60.7289 82.3805 60.7289Z" fill="#A4A4A4"/>
<path d="M87.863 57.6744C87.954 57.4601 88.0722 57.2564 88.1356 57.032C88.8117 54.6415 88.1487 52.2076 86.2139 50.6198C85.2258 49.8089 84.2326 49.4668 82.9963 49.2809C82.7932 49.2502 82.5858 49.2603 82.3803 49.2497C81.6526 49.2867 81.4077 49.2679 80.5885 49.5202C78.7437 50.0866 77.21 51.5773 76.625 53.4649C76.2557 54.6549 76.2886 55.8411 76.625 57.0325C76.6888 57.2569 76.807 57.4606 76.8976 57.6748C76.5837 57.2232 76.5396 57.1867 76.2806 56.3705C75.5079 53.9381 76.3529 51.3126 78.3177 49.7392C79.3682 48.8985 80.4248 48.5463 81.7277 48.3551C82.0186 48.3119 82.743 48.3119 83.0338 48.3551C83.4533 48.4166 83.8741 48.48 84.2804 48.6021C85.8263 49.0652 87.1958 50.1322 87.9972 51.5692C88.4556 52.3907 88.5907 52.9638 88.7352 53.8915C88.8586 54.6842 88.7164 55.6292 88.4809 56.3705C88.3585 56.7563 88.1581 57.1118 87.9972 57.4827L87.863 57.6744Z" fill="#C6C6C6"/>
<path d="M87.5501 75.0959C85.6476 75.0959 84.105 73.6273 84.105 71.8165C84.105 70.0049 85.6476 68.5367 87.5501 68.5367C89.4531 68.5367 90.9952 70.0053 90.9952 71.8165C90.9948 73.6273 89.4526 75.0959 87.5501 75.0959Z" fill="#828282"/>
<path d="M130.26 95.0978C130.06 95.2184 129.851 95.326 129.66 95.4596C128.334 96.3873 126.984 98.0015 126.099 99.3577C125.363 100.489 124.648 101.677 124.263 102.995C124.144 103.398 123.875 104.409 124.358 104.762C124.407 104.798 124.461 104.834 124.519 104.842C125.128 104.933 125.577 104.586 126.05 104.301C126.272 104.127 126.502 103.963 126.715 103.778C128.116 102.563 129.296 101.007 130.237 99.4087C130.725 98.5804 131.174 97.6998 131.448 96.7654C131.566 96.3618 131.836 95.3505 131.352 94.9974C131.16 94.8567 130.778 94.911 130.778 94.911L130.26 95.0978ZM131.093 88.4992C131.093 88.4992 130.362 91.6705 132.53 93.4798C132.658 94.0327 132.707 94.1567 132.716 94.8379C132.751 97.572 131.142 100.448 129.509 102.425C127.967 104.29 125.938 106.026 123.391 106.353C121.247 104.871 118.237 106.854 118.237 106.854C118.237 106.854 118.107 104.19 119.207 103.117C120.081 102.263 122.101 102.982 122.954 102.768C123.175 101.75 122.778 103.387 123.109 102.364C122.715 101.989 120.02 101.77 119.561 101.879C119.419 101.932 121.258 98.2508 121.371 98.2234C121.829 98.0913 123.918 98.7409 123.918 98.7409C123.918 98.7409 125.329 99.1199 124.89 98.6669C124.452 98.2139 122.484 97.549 121.669 97.4956C121.578 97.3251 124.831 93.1367 125.309 93.0656C125.56 93.4937 127.824 95.2083 127.742 95.2059C127.66 95.203 128 95.2146 128.078 94.9662C127.221 94.3911 126.315 92.0226 126.315 92.0226C126.315 92.0226 127.343 90.2662 129.048 89.5355C128.473 91.694 129.929 93.5552 129.929 93.5552C129.929 93.5552 129.968 93.4951 130.362 93.2275C129.371 92.614 129.497 89.8454 129.614 89.131C130.26 88.3633 131.093 88.4992 131.093 88.4992Z" fill="#808080"/>
<path d="M63.7418 124.96C63.9229 124.92 64.1016 124.868 64.2837 124.84C65.55 124.646 67.2043 124.828 68.4508 125.115C69.4901 125.355 70.548 125.64 71.4873 126.176C71.7744 126.34 72.4805 126.766 72.3966 127.227C72.3881 127.274 72.3759 127.323 72.3478 127.359C72.0475 127.74 71.6004 127.788 71.1744 127.882C70.952 127.904 70.731 127.936 70.5077 127.947C69.041 128.019 67.5163 127.778 66.1059 127.385C65.3745 127.18 64.637 126.926 63.9707 126.546C63.6831 126.382 62.977 125.956 63.0615 125.495C63.0948 125.311 63.3449 125.135 63.3449 125.135L63.7418 124.96ZM59.668 121.682C59.668 121.682 61.8158 123.079 61.5583 125.276C61.7863 125.657 61.8252 125.754 62.1921 126.144C63.662 127.709 66.1524 128.463 68.1675 128.696C70.0681 128.915 72.1784 128.798 73.8177 127.602C74.239 125.604 77.047 125.094 77.047 125.094C77.047 125.094 75.9285 123.668 74.9803 123.692C74.2535 124.272 72.6654 125.102 72.1141 125.339C71.4329 124.884 72.5523 125.595 71.8049 125.195C72.4683 124.534 74.0785 123.62 74.193 123.229C74.3038 123.181 70.0155 121.683 69.9358 121.729C69.6008 121.902 69.2423 123.856 69.2423 123.856C69.2423 123.856 68.9674 124.248 68.9721 123.755C68.9763 123.262 69.0261 122.01 69.4647 121.538C69.4239 121.393 65.3529 120.586 65.0405 120.805C64.91 121.089 65.0569 121.959 64.895 122.302C64.8673 121.748 64.7092 120.791 64.7092 120.791C64.7092 120.791 63.389 120.374 62.0134 120.884C62.5806 121.436 63.2581 122.736 63.2369 124.032C62.8344 122.342 62.1335 121.39 61.6765 121.05C60.8864 120.965 59.668 121.682 59.668 121.682Z" fill="#808080"/>
<path d="M100.341 123.131C100.439 123.027 100.529 122.916 100.633 122.818C101.351 122.14 102.467 121.522 103.371 121.149C104.124 120.838 104.908 120.546 105.72 120.461C105.968 120.434 106.588 120.384 106.724 120.705C106.738 120.737 106.75 120.774 106.748 120.809C106.716 121.175 106.453 121.401 106.223 121.647C106.093 121.759 105.966 121.876 105.83 121.981C104.936 122.672 103.876 123.197 102.826 123.578C102.282 123.775 101.713 123.945 101.136 124.005C100.888 124.031 100.268 124.081 100.132 123.76C100.078 123.632 100.162 123.414 100.162 123.414L100.341 123.131ZM96.4287 122.914C96.4287 122.914 98.3551 122.825 99.0955 124.288C99.3962 124.422 99.4605 124.464 99.8508 124.542C101.42 124.855 103.298 124.22 104.664 123.473C105.951 122.769 107.232 121.766 107.774 120.308C107.219 118.894 108.779 117.342 108.779 117.342C108.779 117.342 107.489 116.959 106.901 117.392C106.681 118.069 106.021 119.28 105.772 119.669C105.156 119.69 106.153 119.633 105.517 119.718C105.664 119.019 106.304 117.746 106.215 117.456C106.265 117.378 102.948 118.349 102.916 118.412C102.777 118.666 103.354 120.025 103.354 120.025C103.354 120.025 103.341 120.388 103.142 120.082C102.942 119.777 102.459 118.987 102.542 118.503C102.457 118.432 99.5599 119.732 99.453 120.004C99.4877 120.236 99.9376 120.707 99.9766 120.989C99.7317 120.661 99.2386 120.142 99.2386 120.142C99.2386 120.142 98.2359 120.468 97.5786 121.389C98.1628 121.478 99.1231 121.977 99.6425 122.783C98.6943 121.922 97.862 121.647 97.4346 121.639C96.9016 121.936 96.4287 122.914 96.4287 122.914Z" fill="#808080"/>
<path d="M90.5719 106.854C84.8077 106.854 80.1348 102.241 80.1348 96.5511C80.1348 90.861 84.8077 86.2489 90.5719 86.2489C96.3361 86.2489 101.009 90.8615 101.009 96.5511C101.009 102.241 96.3361 106.854 90.5719 106.854Z" fill="#969696"/>
<path d="M135.18 55.1079C135.144 55.2492 135.098 55.39 135.072 55.5317C134.895 56.5185 135.024 57.7877 135.246 58.7371C135.432 59.5288 135.654 60.3326 136.087 61.0335C136.219 61.2478 136.563 61.7738 136.947 61.6873C136.986 61.6787 137.027 61.6671 137.058 61.6426C137.378 61.3943 137.422 61.0474 137.507 60.713C137.528 60.5405 137.557 60.3681 137.569 60.1956C137.649 59.0599 137.468 57.8934 137.16 56.8226C137.001 56.2672 136.799 55.7089 136.493 55.2117C136.36 54.997 136.016 54.4714 135.632 54.5574C135.479 54.592 135.33 54.7923 135.33 54.7923L135.18 55.1079ZM132.513 52.1115C132.513 52.1115 133.644 53.7061 135.47 53.4077C135.785 53.5663 135.864 53.5922 136.183 53.8574C137.462 54.9215 138.055 56.8101 138.222 58.3556C138.379 59.8132 138.254 61.4486 137.24 62.7683C135.577 63.1843 135.117 65.376 135.117 65.376C135.117 65.376 133.949 64.5771 133.98 63.8439C134.471 63.2564 135.181 61.9929 135.385 61.5552C135.016 61.0503 135.591 61.8824 135.269 61.3232C134.712 61.866 133.932 63.1512 133.606 63.2569C133.565 63.3443 132.378 60.1014 132.417 60.0375C132.565 59.7714 134.192 59.4058 134.192 59.4058C134.192 59.4058 134.521 59.1747 134.111 59.2007C133.702 59.2271 132.663 59.3217 132.266 59.6825C132.145 59.6576 131.528 56.5506 131.714 56.2989C131.952 56.186 132.672 56.259 132.958 56.1187C132.499 56.1236 131.707 56.0448 131.707 56.0448C131.707 56.0448 131.378 55.0445 131.819 53.9578C132.27 54.371 133.339 54.8351 134.416 54.7601C133.018 54.5266 132.238 54.0284 131.961 53.6907C131.902 53.0849 132.513 52.1115 132.513 52.1115Z" fill="#808080"/>
<path d="M90.5719 106.854C84.8077 106.854 80.1348 102.241 80.1348 96.5511L80.1399 96.3402C80.207 100.836 83.5273 104.652 87.7175 105.704C88.5512 105.913 89.3891 105.993 90.2444 106.014C95.8276 106.014 100.354 101.59 100.354 96.1312C100.277 90.5184 95.7755 86.3844 90.4091 86.2518L90.5724 86.2479C96.3366 86.2479 101.01 90.8605 101.01 96.5501C101.009 102.241 96.3361 106.854 90.5719 106.854Z" fill="#D6D6D6"/>
<path d="M13.62 98.6577C12.6145 98.8864 11.3783 97.1218 10.8575 94.7178C10.3377 92.3128 10.7303 90.1792 11.7358 89.951C12.7412 89.7224 13.9779 91.487 14.4982 93.891C15.0185 96.2955 14.6254 98.4295 13.62 98.6577Z" fill="#808080"/>
<path d="M14.1783 97.8953C14.069 97.8665 13.9527 97.8583 13.8508 97.8084C13.3592 97.5715 12.928 96.9076 12.7089 96.4502C12.273 95.5427 11.9469 94.5444 11.824 93.5369C11.7302 92.7639 11.6772 91.9611 11.847 91.193C11.9085 90.9148 12.0155 90.5867 12.1975 90.3594C12.2683 90.2691 12.3701 90.21 12.456 90.1355L12.479 90.1269C12.5583 90.1778 12.6465 90.2172 12.7169 90.2797C13.6247 91.0805 14.0676 92.3047 14.3923 93.4485C14.7287 94.6342 14.8666 96.2028 14.5626 97.401C14.5227 97.5566 14.4551 97.7041 14.4017 97.855L14.336 97.88L14.1783 97.8953Z" fill="#2A2A2A"/>
<path d="M24.4102 36.776C23.9283 36.2038 24.5875 34.6578 25.8838 33.3242C27.1797 31.99 28.6214 31.3727 29.1028 31.9458C29.5851 32.518 28.9254 34.064 27.6296 35.3977C26.3338 36.7318 24.892 37.3491 24.4102 36.776Z" fill="#808080"/>
<path d="M24.9968 36.7616C24.9705 36.6708 24.9292 36.5819 24.9175 36.4877C24.8654 36.0347 25.1019 35.4567 25.2961 35.1156C25.6813 34.4387 26.1678 33.806 26.7435 33.3184C27.184 32.9451 27.6607 32.5896 28.2064 32.4104C28.4039 32.346 28.6502 32.2951 28.8651 32.3383C28.95 32.3552 29.0283 32.4061 29.1095 32.4397L29.1236 32.4531C29.1245 32.531 29.1353 32.6107 29.1259 32.6876C28.9979 33.6682 28.4189 34.4757 27.8418 35.1647C27.2432 35.8781 26.3269 36.5983 25.4598 36.8486C25.3472 36.8807 25.229 36.8899 25.1131 36.91L25.0714 36.8721L24.9968 36.7616Z" fill="#2A2A2A"/>
<path d="M79.68 7.35106C79.6336 6.52521 81.6036 6.00491 84.079 6.18891C86.5543 6.37339 88.599 7.19254 88.6445 8.01935C88.6909 8.8452 86.7208 9.36547 84.2455 9.18146C81.7702 8.9965 79.726 8.17738 79.68 7.35106Z" fill="#808080"/>
<path d="M80.3359 7.96459C80.3847 7.88773 80.4138 7.80077 80.4814 7.73447C80.8042 7.41499 81.5394 7.24539 82.0315 7.18822C83.0088 7.07436 84.056 7.06619 85.0774 7.21704C85.8599 7.33234 86.665 7.48656 87.3951 7.80364C87.6597 7.9175 87.9651 8.07989 88.1584 8.27398C88.2344 8.35036 88.2752 8.44261 88.3334 8.52668L88.3381 8.54589C88.2734 8.59441 88.2185 8.65208 88.1443 8.69147C87.1882 9.19255 85.8956 9.23579 84.7044 9.20696C83.4686 9.1767 81.8903 8.90284 80.7573 8.37822C80.6099 8.31 80.4762 8.22355 80.3359 8.14572L80.3242 8.08951L80.3359 7.96459Z" fill="#2A2A2A"/>
<path d="M120.466 16.6453C120.828 16.0683 122.369 16.6372 123.909 17.9175C125.448 19.1973 126.404 20.703 126.042 21.2804C125.68 21.8579 124.139 21.2886 122.599 20.0083C121.06 18.7284 120.104 17.2228 120.466 16.6453Z" fill="#808080"/>
<path d="M120.605 17.364C120.674 17.3352 120.734 17.2905 120.81 17.2766C121.174 17.2127 121.738 17.4419 122.088 17.6331C122.785 18.0131 123.477 18.4964 124.077 19.0748C124.536 19.5178 124.993 19.9972 125.322 20.5516C125.442 20.7525 125.566 21.0032 125.601 21.2247C125.614 21.3122 125.598 21.3929 125.595 21.4769L125.589 21.4918C125.524 21.4942 125.461 21.5072 125.393 21.499C124.526 21.39 123.656 20.8154 122.887 20.2398C122.089 19.6431 121.182 18.7212 120.686 17.8397C120.621 17.7248 120.575 17.6038 120.52 17.4861L120.538 17.4423L120.605 17.364Z" fill="#2A2A2A"/>
<path d="M97.3372 25.3578C95.3592 24.7159 93.9508 23.7344 94.1919 23.1646C94.4326 22.5949 96.2314 22.654 98.2085 23.2953C100.187 23.9372 101.595 24.9187 101.354 25.488C101.114 26.0577 99.3148 25.9991 97.3372 25.3578Z" fill="#2A2A2A"/>
<path d="M93.9618 23.1032C94.0889 23.2223 94.2067 23.3515 94.3418 23.4611C95.2783 24.2192 96.7444 24.8274 97.9338 25.1536C98.9251 25.4246 99.9573 25.6653 101.031 25.6302C101.361 25.6196 102.181 25.574 102.369 25.1286C102.388 25.084 102.406 25.0354 102.403 24.9893C102.368 24.5161 102.026 24.2668 101.727 23.9852C101.556 23.8632 101.391 23.733 101.213 23.6196C100.044 22.875 98.6511 22.3792 97.2671 22.0693C96.5502 21.9088 95.799 21.7902 95.0371 21.8151C94.7082 21.8262 93.8872 21.8723 93.6995 22.3167C93.6244 22.494 93.692 22.58 93.7319 22.7645L93.9618 23.1032ZM88.7681 24.0938C88.7681 24.0938 91.3204 23.8627 92.3366 21.8132C92.7387 21.5836 92.8245 21.5173 93.3448 21.3439C95.4326 20.6516 97.9089 21.1445 99.7016 21.8757C101.392 22.5656 103.067 23.6484 103.751 25.4596C102.983 27.4116 105.014 29.1632 105.014 29.1632C105.014 29.1632 102.686 27.8882 101.987 26.5752C101.171 26.6597 101.585 26.6367 100.745 26.6405C100.525 27.0244 100.616 27.3352 100.778 27.6484C100.843 27.7416 100.661 27.7484 100.62 27.671C100.441 27.3636 100.358 27.0095 100.306 26.6429C99.3694 26.6602 98.4888 26.4138 97.611 26.2192L97.5533 26.3109C97.0996 26.9879 96.5854 27.6114 96.0092 28.1803C95.8943 28.2893 95.5391 28.2639 95.6986 28.1394C96.3503 27.5903 96.6581 26.7376 96.7759 25.9454C95.8553 25.6922 95.0446 25.2161 94.2339 24.7554C93.9585 25.0138 93.6465 25.2108 93.3373 25.4126C93.2838 25.4447 93.2022 25.3458 93.2744 25.3131C93.5827 25.1536 93.7553 24.8399 93.8646 24.5228C92.8156 23.7671 93.2571 24.1245 92.5139 23.4827C90.6143 24.5065 88.7681 24.0938 88.7681 24.0938Z" fill="#464646"/>
<path d="M30.9709 68.8591C30.3043 71.1118 29.2641 72.7274 28.6467 72.4675C28.0293 72.2076 28.0691 70.1706 28.7358 67.9174C29.402 65.6647 30.4422 64.0491 31.0596 64.309C31.6766 64.5694 31.6372 66.6059 30.9709 68.8591Z" fill="#2A2A2A"/>
<path d="M28.5841 72.7279C28.7108 72.5824 28.8482 72.4459 28.9641 72.2907C29.7702 71.2146 30.4068 69.5413 30.7427 68.1879C31.0233 67.0594 31.2691 65.8862 31.218 64.6712C31.202 64.2994 31.142 63.3717 30.6602 63.1685C30.6114 63.1483 30.5583 63.1291 30.5091 63.1339C29.9986 63.1824 29.735 63.5763 29.4352 63.9208C29.3061 64.1173 29.1673 64.3066 29.0476 64.5103C28.2594 65.8502 27.7433 67.438 27.4276 69.0099C27.2634 69.8257 27.1451 70.6789 27.1822 71.5403C27.1982 71.9122 27.2582 72.8403 27.7405 73.0431C27.9329 73.1243 28.0239 73.0455 28.2224 72.997L28.5841 72.7279ZM29.7181 78.5852C29.7181 78.5852 29.4361 75.7013 27.2136 74.5972C26.9603 74.1466 26.8876 74.0505 26.6943 73.4659C25.9206 71.119 26.4203 68.3051 27.1855 66.26C27.9075 64.3316 29.0537 62.4109 30.998 61.5965C33.113 62.4238 34.9751 60.0861 34.9751 60.0861C34.9751 60.0861 33.63 62.7495 32.2234 63.5687C32.3252 64.4911 32.2947 64.0222 32.3102 64.9734C32.7268 65.2141 33.0609 65.1041 33.3964 64.9134C33.4954 64.8379 33.5052 65.044 33.4226 65.0916C33.0938 65.3011 32.7123 65.4024 32.3182 65.4692C32.3487 66.529 32.0954 67.5317 31.8964 68.5295L31.9963 68.5929C32.732 69.0911 33.4114 69.659 34.0321 70.2989C34.1513 70.4267 34.1278 70.8293 33.9922 70.6511C33.3921 69.9251 32.4679 69.5965 31.6121 69.4807C31.3503 70.5276 30.8478 71.4563 30.3618 72.3835C30.6438 72.6895 30.8605 73.0383 31.0824 73.3842C31.1167 73.4442 31.012 73.5384 30.9755 73.4572C30.799 73.1118 30.4594 72.9234 30.1155 72.8062C29.3141 74.0106 29.6946 73.5029 29.012 74.359C30.1399 76.4863 29.7181 78.5852 29.7181 78.5852Z" fill="#464646"/>
</g>
<defs>
<filter id="filter0_d_8_815" x="0" y="0" width="158" height="158" filterUnits="userSpaceOnUse" color-interpolation-filters="sRGB">
<feFlood flood-opacity="0" result="BackgroundImageFix"/>
<feColorMatrix in="SourceAlpha" type="matrix" values="0 0 0 0 0 0 0 0 0 0 0 0 0 0 0 0 0 0 127 0" result="hardAlpha"/>
<feOffset dy="4"/>
<feGaussianBlur stdDeviation="2"/>
<feComposite in2="hardAlpha" operator="out"/>
<feColorMatrix type="matrix" values="0 0 0 0 0 0 0 0 0 0 0 0 0 0 0 0 0 0 0.25 0"/>
<feBlend mode="normal" in2="BackgroundImageFix" result="effect1_dropShadow_8_815"/>
<feBlend mode="normal" in="SourceGraphic" in2="effect1_dropShadow_8_815" result="shape"/>
</filter>
</defs>
</svg>
