<svg width="150" height="150" viewBox="0 0 150 150" fill="none" xmlns="http://www.w3.org/2000/svg">
<path fill-rule="evenodd" clip-rule="evenodd" d="M53.6445 3.12483C13.9492 14.9198 -8.66866 56.659 3.12482 96.356C14.9197 136.052 56.6601 158.669 96.3555 146.875C136.051 135.081 158.669 93.3404 146.875 53.6448C135.08 13.9492 93.3399 -8.66871 53.6445 3.12483Z" fill="#FAE2AA"/>
<path fill-rule="evenodd" clip-rule="evenodd" d="M100.689 95.4139C103.525 95.4139 105.841 93.0999 105.841 90.2621C105.841 87.4258 103.525 85.1118 100.689 85.1118C97.8497 85.1118 95.5371 87.4258 95.5371 90.2621C95.5371 93.0999 97.8497 95.4139 100.689 95.4139Z" fill="#BD8C51"/>
<path fill-rule="evenodd" clip-rule="evenodd" d="M137.05 61.2628C137.05 100.678 105.095 132.632 65.6783 132.632C38.3841 132.632 14.6676 117.309 2.66211 94.7962C11.3475 126.601 40.4448 149.98 75.0012 149.98C116.413 149.98 149.98 116.409 149.98 74.999C149.98 50.5267 138.256 28.7925 120.12 15.1062C130.677 27.5516 137.05 43.6643 137.05 61.2628Z" fill="#ECCD94"/>
<path fill-rule="evenodd" clip-rule="evenodd" d="M89.2982 1.38576C82.86 8.81312 70.1486 21.2101 52.6299 27.5288C38.3047 32.6976 26.0387 29.9282 17.9041 26.3931C26.995 15.694 39.1842 7.42129 53.6446 3.12483C65.6373 -0.438702 77.8136 -0.857104 89.2982 1.38576ZM149.686 68.249C149.24 63.389 148.318 58.502 146.874 53.6448C143.743 43.1079 138.502 33.7749 131.75 25.969C131.689 26.0644 131.626 26.1597 131.569 26.2636C126.237 35.6293 90.2418 56.5921 65.5946 63.9142C40.9474 71.2376 76.7021 60.6139 35.9252 72.7291C14.1755 79.1901 4.40712 78.5611 0.0224609 76.5658C0.161928 83.1208 1.16666 89.7654 3.12346 96.3546C3.22735 96.7032 3.33835 97.0462 3.44793 97.3921C15.2499 98.6316 35.0927 92.8451 51.0872 88.0933C71.0182 82.1716 77.2571 80.3172 112.1 69.9653C130.535 64.4891 142.502 65.7998 149.686 68.249ZM140.942 110.687C134.074 109.311 123.708 108.907 109.981 112.984C83.0493 120.988 66.0087 126.05 51.0986 130.48C45.416 132.168 40.8407 135.886 37.354 139.839C28.172 134.51 20.1028 127.237 13.824 118.386L147.369 94.6383C145.843 100.231 143.686 105.618 140.942 110.687Z" fill="#DABD86"/>
<path fill-rule="evenodd" clip-rule="evenodd" d="M137.05 61.2628C137.05 62.9037 136.988 64.5346 136.88 66.1499C142.223 66.2709 146.44 67.1432 149.682 68.249C149.585 67.1717 149.466 66.1015 149.323 65.0384C148.812 61.2415 148.001 57.4332 146.876 53.6462C145.433 48.7905 143.543 44.1895 141.263 39.8774C138.61 34.8836 135.411 30.2256 131.743 25.9833C131.685 26.0743 131.628 26.1654 131.573 26.2636C131.09 27.1118 130.353 28.0554 129.398 29.0772C134.291 38.746 137.05 49.6814 137.05 61.2628ZM126.686 98.3185C123.814 103.036 120.408 107.39 116.559 111.305C127.061 109.07 135.216 109.54 140.943 110.687C143.686 105.616 145.844 100.23 147.369 94.6397L126.686 98.3185ZM49.8879 130.877C39.2215 128.468 29.4617 123.672 21.1961 117.077L13.8428 118.383C18.1037 124.38 23.2227 129.724 29.0233 134.233L29.3137 134.455L29.9598 134.946C32.3293 136.723 34.7984 138.358 37.3558 139.84C40.5891 136.17 44.7617 132.706 49.8879 130.877ZM4.15841 97.4575C3.65746 96.6036 3.16792 95.7426 2.69971 94.8674C2.83775 95.3655 2.97721 95.8593 3.12522 96.356C3.22911 96.7047 3.34013 97.0476 3.44971 97.3935C3.68168 97.4177 3.91932 97.439 4.15841 97.4575Z" fill="#C09D6D"/>
<path fill-rule="evenodd" clip-rule="evenodd" d="M119.3 14.5085L88.7116 23.5967C74.7123 27.7565 77.365 31.108 56.2144 37.3911C38.0354 42.7934 21.2111 40.8181 10.3441 37.0396C8.17239 40.7398 6.31948 44.6207 4.80527 48.6425C16.0779 51.8388 36.1511 54.9697 59.6072 47.1453C95.9155 35.033 80.4845 35.4784 104.673 28.2916L127.543 21.4961C124.96 18.9644 122.205 16.629 119.3 14.5085ZM133.768 121.571C114.339 120.767 82.4527 123.855 52.9284 146.664C66.5947 150.886 81.6173 151.255 96.3552 146.875C111.721 142.309 124.523 133.255 133.768 121.571ZM148.483 89.9547C148.077 91.9414 147.594 93.9096 147.03 95.8508L74.8275 117.303L26.0398 131.799C18.4061 125.231 12.0319 117.068 7.4836 107.624C12.4859 106.06 23.158 102.773 31.4363 100.559C42.6349 97.5614 53.0935 103.23 66.8068 103.13C80.5201 103.029 83.0902 96.6363 89.7191 96.652C96.3495 96.6691 106.504 102.43 119.132 98.6771L148.483 89.9547ZM147.729 56.78C143.72 55.1476 137.266 54.3763 127.221 57.3592C106.074 63.6423 87.5119 69.157 68.9472 74.6731C50.3839 80.1891 31.822 85.7038 24.2153 87.9652C18.9768 89.5207 8.72172 90.8413 1.32145 88.9372C0.994128 87.2152 0.732274 85.4918 0.527344 83.7726C5.99216 85.0919 15.0191 85.3978 29.1579 81.1953C57.0028 72.9226 90.324 63.0218 105.234 58.5916C116.548 55.2302 132.38 45.2839 139.641 36.9827C142.652 42.1117 145.105 47.6847 146.875 53.6434C147.187 54.6894 147.466 55.734 147.729 56.78Z" fill="#BD8C51"/>
<path fill-rule="evenodd" clip-rule="evenodd" d="M125.38 22.1394L127.532 21.5004C125.967 19.9634 124.336 18.4933 122.642 17.0958L122.634 17.0901L122.626 17.0844L122.504 16.9848L122.111 16.6631L121.979 16.5578C121.371 16.0711 120.758 15.5929 120.135 15.1247C122.02 17.3505 123.772 19.693 125.38 22.1394ZM128.01 96.0372C126.708 98.364 125.285 100.613 123.739 102.769L147.03 95.8494C147.594 93.9096 148.076 91.9414 148.483 89.9533L128.01 96.0372ZM97.4385 125.189C91.6435 128.072 85.3988 130.191 78.8396 131.416C70.2453 135.098 61.4888 140.051 52.9287 146.664C55.2527 147.381 57.6179 147.989 60.013 148.478L60.2066 148.517C60.504 148.578 60.8014 148.635 61.0989 148.692C65.6031 149.537 70.251 149.98 75 149.98C78.8083 149.98 82.5497 149.694 86.2072 149.144L86.7536 149.06C87.0226 149.018 87.2916 148.971 87.562 148.925C90.495 148.423 93.4296 147.743 96.3555 146.873C100.964 145.504 105.341 143.731 109.461 141.603C109.881 141.388 110.299 141.168 110.713 140.943L110.775 140.909C119.685 136.066 127.502 129.46 133.764 121.568C124.119 121.17 111.407 121.733 97.4385 125.189ZM39.6808 127.746C28.2644 123.277 18.2769 115.957 10.602 106.655C9.41649 107.022 8.36196 107.348 7.48389 107.624C8.02468 108.747 8.59109 109.852 9.18169 110.937L9.41934 111.369L9.70112 111.872C13.9748 119.426 19.5221 126.164 26.0515 131.796L39.6808 127.746ZM139.724 37.1236L139.64 36.9841C138.205 38.6264 136.432 40.3328 134.427 42.0391C135.634 46.3597 136.442 50.8455 136.814 55.455C141.638 55.0523 145.179 55.7425 147.729 56.7814C147.464 55.7354 147.185 54.6894 146.874 53.6462C145.189 47.9793 142.89 42.6653 140.083 37.7441L140.06 37.7099L139.922 37.468L139.906 37.4424L139.724 37.1236Z" fill="#A3702F"/>
<path fill-rule="evenodd" clip-rule="evenodd" d="M19.8578 60.1457C18.994 63.0845 15.9087 64.768 12.9685 63.9042C10.0283 63.0418 8.34471 59.9564 9.20998 57.0148C11.9509 47.7971 16.6003 39.311 22.6799 31.9903C28.8364 24.5772 36.4544 18.3723 45.0359 13.8339C47.7483 12.4051 51.1055 13.4454 52.5343 16.1593C53.9617 18.8718 52.9214 22.229 50.2075 23.6564C42.8912 27.5259 36.416 32.7944 31.2002 39.0747C26.0812 45.2355 22.1662 52.381 19.8578 60.1457ZM65.3994 18.0308C62.4094 18.7025 59.4422 16.824 58.7705 13.8368C58.0987 10.8482 59.9759 7.87953 62.9659 7.20781C64.436 6.87907 65.9786 6.58447 67.5925 6.33116C69.1252 6.09065 70.6764 5.89568 72.2361 5.75336C75.2859 5.48012 77.9827 7.72726 78.256 10.7742C78.5321 13.8226 76.2835 16.518 73.2366 16.7926C71.906 16.915 70.5881 17.0787 69.2874 17.285C68.0308 17.4814 66.7329 17.7319 65.3994 18.0308Z" fill="#FFEBBC"/>
<path fill-rule="evenodd" clip-rule="evenodd" d="M44.7458 56.0414C47.649 56.0414 50.0213 53.6718 50.0213 50.7672C50.0213 47.8612 47.6504 45.4916 44.7458 45.4916C41.8398 45.4916 39.4717 47.8612 39.4717 50.7672C39.4717 53.6718 41.8412 56.0414 44.7458 56.0414Z" fill="#BD8C51"/>
<path fill-rule="evenodd" clip-rule="evenodd" d="M55.0819 57.2653C56.2517 57.2653 57.2023 56.3132 57.2023 55.1462C57.2023 53.9778 56.2517 53.0271 55.0819 53.0271C53.9149 53.0271 52.9614 53.9778 52.9614 55.1462C52.9628 56.3132 53.9149 57.2653 55.0819 57.2653Z" fill="#BD8C51"/>
<path fill-rule="evenodd" clip-rule="evenodd" d="M71.8958 34.8793C73.7288 34.8793 75.2216 33.385 75.2216 31.5549C75.2216 29.7233 73.7288 28.229 71.8958 28.229C70.0656 28.229 68.5728 29.7233 68.5728 31.5549C68.5728 33.385 70.0656 34.8793 71.8958 34.8793Z" fill="#BD8C51"/>
<path fill-rule="evenodd" clip-rule="evenodd" d="M101.84 54.7776C105.291 54.7776 108.106 51.9612 108.106 48.5087C108.106 45.0562 105.29 42.2412 101.84 42.2412C98.3862 42.2412 95.5713 45.0576 95.5713 48.5087C95.5713 51.9627 98.3877 54.7776 101.84 54.7776Z" fill="#DABD86"/>
<path fill-rule="evenodd" clip-rule="evenodd" d="M77.6531 128.123C80.3257 128.123 82.5074 125.943 82.5074 123.269C82.5074 120.595 80.3257 118.415 77.6531 118.415C74.979 118.415 72.7974 120.595 72.7974 123.269C72.7988 125.943 74.979 128.123 77.6531 128.123Z" fill="#DABD86"/>
<path fill-rule="evenodd" clip-rule="evenodd" d="M59.0541 94.6169C63.0944 94.6169 66.3889 91.3238 66.3889 87.2835C66.3889 83.2432 63.0944 79.9501 59.0541 79.9501C55.0152 79.9501 51.7207 83.2432 51.7207 87.2835C51.7207 91.3238 55.0152 94.6169 59.0541 94.6169Z" fill="#DABD86"/>
<path fill-rule="evenodd" clip-rule="evenodd" d="M48.2391 97.4276C49.8572 97.4276 51.1779 96.1055 51.1779 94.4888C51.1779 92.8707 49.8572 91.5529 48.2391 91.5529C46.621 91.5529 45.3018 92.8722 45.3018 94.4888C45.3018 96.1055 46.6224 97.4276 48.2391 97.4276Z" fill="#DABD86"/>
<path fill-rule="evenodd" clip-rule="evenodd" d="M69.5497 87.4343C70.3581 87.4343 71.0198 86.774 71.0198 85.9657C71.0198 85.1573 70.3595 84.497 69.5497 84.497C68.7414 84.497 68.0811 85.1573 68.0811 85.9657C68.0811 86.774 68.7414 87.4343 69.5497 87.4343Z" fill="#DABD86"/>
</svg>
