<svg width="150" height="150" viewBox="0 0 150 150" fill="none" xmlns="http://www.w3.org/2000/svg">
<path fill-rule="evenodd" clip-rule="evenodd" d="M53.6458 3.12483C13.9472 14.9198 -8.66942 56.659 3.12558 96.356C14.9192 136.052 56.66 158.669 96.3557 146.875C136.053 135.081 158.669 93.3404 146.874 53.6448C135.082 13.9492 93.3415 -8.66871 53.6458 3.12483Z" fill="#75C7D2"/>
<path fill-rule="evenodd" clip-rule="evenodd" d="M137.049 61.2628C137.049 100.678 105.097 132.632 65.6784 132.632C38.3825 132.632 14.6658 117.309 2.66162 94.7962C11.3442 126.601 40.4418 149.98 75.0014 149.98C116.412 149.98 149.982 116.409 149.982 74.999C149.982 50.5267 138.259 28.7925 120.122 15.1062C130.679 27.5516 137.049 43.6643 137.049 61.2628Z" fill="#54B9C3"/>
<path fill-rule="evenodd" clip-rule="evenodd" d="M19.8573 60.1457C18.9934 63.0845 15.9095 64.768 12.9693 63.9042C10.0291 63.0418 8.3455 59.9564 9.20935 57.0148C11.9503 47.7971 16.5997 39.311 22.6794 31.9903C28.8359 24.5772 36.4554 18.3723 45.0355 13.8339C47.7466 12.4051 51.1038 13.4454 52.5312 16.1593C53.96 18.8718 52.9183 22.229 50.2058 23.6564C42.8894 27.5259 36.4141 32.7944 31.1969 39.0747C26.0807 45.2355 22.1671 52.381 19.8573 60.1457ZM65.3979 18.0308C62.4093 18.7025 59.4434 16.824 58.7717 13.8368C58.0971 10.8482 59.9771 7.87953 62.9643 7.20781C64.4344 6.87907 65.9785 6.58447 67.5909 6.33116C69.1265 6.09065 70.6749 5.89568 72.2375 5.75336C75.2873 5.48012 77.9813 7.72726 78.2573 10.7742C78.532 13.8226 76.2849 16.518 73.2365 16.7926C71.9045 16.915 70.5895 17.0787 69.2887 17.285C68.0307 17.4814 66.7342 17.7319 65.3979 18.0308Z" fill="#A5D9E7"/>
<path fill-rule="evenodd" clip-rule="evenodd" d="M110.483 141.069C113.715 138.358 119.165 135.145 119.165 132.777C119.165 129.716 118.916 124.999 122.557 122.517C126.199 120.035 130.334 118.712 130.334 115.402C130.334 112.093 130.003 108.741 131.823 105.391C133.645 102.04 134.638 102.825 134.638 100.054C134.638 97.2822 133.849 96.3714 131.989 96.3316C130.128 96.2903 129.384 94.4701 129.384 94.4701C127.232 89.5859 124.087 92.6485 120.448 89.5859C116.807 86.5262 114.123 80.1149 109.193 80.1149C104.264 80.1149 104.183 80.3967 102.528 79.1856C100.87 77.9731 100.384 76.7222 99.213 75.2677C98.0432 73.8133 97.3103 73.7706 94.2334 73.7706C91.158 73.7706 90.9503 71.0566 89.1144 71.0566C87.2786 71.0566 86.9669 71.0566 84.3554 71.0566C81.7439 71.0566 81.3583 71.7027 79.1851 74.004C77.012 76.3052 75.1562 77.3156 73.3147 76.8218C71.4745 76.3279 70.1866 75.1923 70.1866 73.5386C70.1866 71.8835 70.1866 72.1439 70.1866 69.4015C70.1866 66.662 69.5675 66.1966 68.0405 65.3698C66.5149 64.5415 65.2213 63.3518 66.9803 61.543C68.7393 59.7342 69.9532 57.6905 68.8944 57.6905C67.8341 57.6905 65.9727 57.6905 63.569 57.6905C61.1653 57.6905 60.078 57.8727 58.9922 58.9842C57.9049 60.0956 56.819 61.8006 56.069 61.6212C55.3205 61.4405 54.6729 59.9932 54.9319 59.2688C55.1895 58.5444 57.2061 51.4615 59.8944 49.341C62.5842 47.2205 65.2198 48.2537 66.3583 49.341C67.4954 50.4268 67.6506 54.5113 71.3735 53.3727C75.0965 52.2357 76.3374 43.8576 78.8194 41.5835C81.3013 39.3079 88.3345 40.6527 92.7818 34.344C97.2277 28.0352 99.556 22.9162 102.399 22.9162C105.244 22.9162 105.555 22.9162 110.104 22.9162C114.654 22.9162 116.207 21.7264 116.207 17.4869C116.207 15.2597 117.591 14.6719 118.902 14.2208C116.13 12.2213 113.224 10.4111 110.21 8.80719C109.443 9.07474 108.637 9.57569 107.829 10.505C105.785 12.8574 103.768 14.2535 102.14 13.5292C100.511 12.8062 100.332 12.0562 98.416 12.0562C96.5033 12.0562 95.1841 13.1165 94.4611 14.5125C93.7382 15.9086 92.2368 18.1316 90.7638 18.1316C89.2895 18.1316 88.8497 17.5097 88.8497 16.8123C88.8497 16.115 88.8497 14.8982 88.8497 13.5548C88.8497 12.2099 88.3843 10.5036 85.5921 10.5036C82.7999 10.5036 80.7833 9.88166 82.1282 8.0202C83.2681 6.44336 84.8179 2.37034 88.1637 1.17063C77.0149 -0.82745 65.2412 -0.323657 53.6426 3.12318C37.3419 7.96612 23.9231 17.8612 14.583 30.5897C17.2912 35.3572 19.5612 38.9649 20.6186 39.749C24.3401 42.5071 27.0298 46.2997 31.924 46.2997C36.8196 46.2997 40.682 46.8519 40.682 51.608C40.682 56.3656 38.7522 56.3656 38.7522 60.0202C38.7522 63.6748 40.6137 64.6041 42.8879 64.6041C45.1635 64.6041 46.645 64.6041 52.023 64.6041C57.4025 64.6041 56.5401 67.6041 60.5377 67.6041C64.5367 67.6041 64.3645 70.8802 65.6396 73.3265C66.9148 75.7743 68.5258 79.16 72.744 79.16C76.965 79.16 76.2207 82.7164 73.9038 86.3596C71.5855 90 68.1928 93.8041 68.1928 97.611C68.1928 101.416 68.0291 103.982 72.993 103.982C77.9555 103.982 74.3151 110.435 80.3564 110.435C86.3962 110.435 85.8995 114.491 85.8995 119.206C85.8995 123.922 88.4654 123.343 88.4654 126.486C88.4654 129.63 88.4654 130.623 88.4654 134.759C88.4654 138.895 88.5494 141.213 91.1125 143.612C92.1016 144.538 92.7192 146.01 93.1775 147.737C94.2363 147.471 95.2951 147.186 96.3496 146.873C101.348 145.393 106.065 143.435 110.483 141.069Z" fill="#33A638"/>
<path fill-rule="evenodd" clip-rule="evenodd" d="M110.489 141.062C113.721 138.351 119.166 135.144 119.166 132.777C119.166 129.716 118.917 124.999 122.557 122.518C126.199 120.036 130.334 118.712 130.334 115.402C130.334 112.093 130.003 108.742 131.823 105.391C133.645 102.04 134.638 102.826 134.638 100.055C134.638 97.2825 133.85 96.3717 131.989 96.3318C130.128 96.2905 129.384 94.4703 129.384 94.4703C129.303 94.2853 129.22 94.1146 129.136 93.9537C120.698 110.3 106.13 122.969 88.4712 128.915V134.761C88.4712 138.896 88.5552 141.215 91.1183 143.614C92.1073 144.539 92.725 146.012 93.1832 147.738C94.242 147.472 95.3009 147.188 96.3554 146.875C100.566 145.624 104.584 144.035 108.391 142.148L108.6 142.044C108.885 141.902 109.167 141.758 109.448 141.613C109.797 141.432 110.144 141.249 110.489 141.062Z" fill="#2E923A"/>
<path fill-rule="evenodd" clip-rule="evenodd" d="M18.6538 37.3157C19.9133 35.4799 21.2568 33.7038 22.6799 31.9903C28.8364 24.5772 36.4559 18.3723 45.036 13.8339C47.7471 12.4051 51.1043 13.4454 52.5317 16.1593C53.9605 18.8718 52.9188 22.229 50.2063 23.6564C42.8899 27.5259 36.4146 32.7944 31.1974 39.0747C29.6746 40.9063 28.26 42.8275 26.9607 44.8242C24.7463 43.4665 22.8734 41.4186 20.6206 39.7507C20.168 39.4134 19.492 38.5595 18.6538 37.3157ZM65.3984 18.0308C62.4098 18.7025 59.4439 16.824 58.7722 13.8368C58.0976 10.8482 59.9776 7.87953 62.9648 7.20781C64.4349 6.87907 65.979 6.58447 67.5914 6.33116C69.127 6.09065 70.6754 5.89568 72.238 5.75336C75.2878 5.48012 77.9818 7.72726 78.2578 10.7742C78.5325 13.8226 76.2854 16.518 73.237 16.7926C71.905 16.915 70.59 17.0787 69.2892 17.285C68.0312 17.4814 66.7347 17.7319 65.3984 18.0308Z" fill="#53B233"/>
<path fill-rule="evenodd" clip-rule="evenodd" d="M46.8858 135.378C51.7501 135.378 55.7178 131.412 55.7178 126.548C55.7178 121.682 51.7501 117.716 46.8858 117.716C42.0215 117.716 38.0537 121.682 38.0537 126.548C38.0537 131.412 42.0215 135.378 46.8858 135.378Z" fill="#54B9C3"/>
<path fill-rule="evenodd" clip-rule="evenodd" d="M31.9202 119.31C34.6213 119.31 36.8258 117.105 36.8258 114.404C36.8258 111.702 34.6213 109.497 31.9202 109.497C29.2176 109.497 27.0132 111.702 27.0132 114.404C27.0132 117.105 29.2176 119.31 31.9202 119.31Z" fill="#54B9C3"/>
<path fill-rule="evenodd" clip-rule="evenodd" d="M64.2426 130.716C65.4921 130.716 66.5125 129.697 66.5125 128.446C66.5125 127.197 65.4921 126.176 64.2426 126.176C62.9931 126.176 61.9727 127.197 61.9727 128.446C61.9741 129.699 62.9931 130.716 64.2426 130.716Z" fill="#54B9C3"/>
<path fill-rule="evenodd" clip-rule="evenodd" d="M128.796 86.8523C130.046 86.8523 131.068 85.8333 131.068 84.5824C131.068 83.3329 130.046 82.3125 128.796 82.3125C127.545 82.3125 126.526 83.3329 126.526 84.5824C126.526 85.8333 127.545 86.8523 128.796 86.8523Z" fill="#54B9C3"/>
<path fill-rule="evenodd" clip-rule="evenodd" d="M135.088 59.8881C140.492 59.8881 144.901 55.4792 144.901 50.0756C144.901 44.6705 140.492 40.263 135.088 40.263C129.683 40.263 125.277 44.6705 125.277 50.0756C125.277 55.4792 129.683 59.8881 135.088 59.8881Z" fill="#54B9C3"/>
<path fill-rule="evenodd" clip-rule="evenodd" d="M126.254 72.2053C128.955 72.2053 131.158 70.0023 131.158 67.2998C131.158 64.5987 128.955 62.3957 126.254 62.3957C123.552 62.3957 121.347 64.5987 121.347 67.2998C121.346 70.0023 123.55 72.2053 126.254 72.2053Z" fill="#54B9C3"/>
</svg>
