<svg width="150" height="150" viewBox="0 0 150 150" fill="none" xmlns="http://www.w3.org/2000/svg">
<path fill-rule="evenodd" clip-rule="evenodd" d="M53.633 3.12535C13.9456 14.9189 -8.66771 56.658 3.12483 96.3563C14.9159 136.05 56.648 158.67 96.3368 146.875C136.024 135.08 158.637 93.3392 146.845 53.6437C135.055 13.9497 93.3232 -8.66958 53.633 3.12535Z" fill="#ECCD94"/>
<path fill-rule="evenodd" clip-rule="evenodd" d="M19.3368 59.5355C18.4731 62.4757 15.3898 64.1607 12.4502 63.2969C9.51064 62.4331 7.82598 59.3477 8.68965 56.4061C11.4315 47.1885 16.0785 38.7023 22.1569 31.3817C28.3135 23.97 35.93 17.7652 44.5069 13.2254C47.2189 11.7965 50.5754 12.8397 52.0039 15.5522C53.431 18.2633 52.3909 21.6218 49.679 23.0492C42.3641 26.9202 35.8888 32.1886 30.674 38.4675C25.5589 44.6268 21.6461 51.7752 19.3368 59.5355ZM64.8693 17.4236C61.8813 18.0953 58.9132 16.2168 58.2402 13.2282C57.57 10.2396 59.4482 7.27097 62.4348 6.60067C63.9046 6.27193 65.4469 5.97735 67.0604 5.72403C68.5928 5.4821 70.1437 5.28854 71.706 5.14623C74.7523 4.87156 77.4486 7.11869 77.7232 10.167C77.9978 13.2154 75.7512 15.9108 72.7048 16.1869C71.3745 16.3079 70.0569 16.473 68.755 16.6779C67.5001 16.8729 66.2025 17.1233 64.8693 17.4236Z" fill="#ECCD94"/>
<path fill-rule="evenodd" clip-rule="evenodd" d="M137.021 61.2617C137.021 100.675 105.073 132.629 65.6657 132.629C38.3769 132.629 14.6652 117.308 2.66211 94.795C11.3443 126.601 40.4344 149.978 74.9867 149.978C116.389 149.978 149.952 116.408 149.952 75.0007C149.952 50.5285 138.231 28.7944 120.095 15.1081C130.653 27.552 137.021 43.6633 137.021 61.2617Z" fill="#C09D6D"/>
<path fill-rule="evenodd" clip-rule="evenodd" d="M2.21177 57.1162C10.682 54.6285 22.2454 51.1419 30.7939 48.2173C45.9714 43.0286 53.7813 33.0339 63.8622 29.7792C71.1002 27.4438 101.829 18.7243 118.596 13.9881C126.904 19.9297 133.989 27.5435 139.319 36.4067C124.349 45.7681 88.9526 65.2921 79.9304 68.238C68.7297 71.894 26.4656 82.9019 23.7067 82.4067C22.2255 82.1391 9.79125 83.0884 0.248234 80.1325C-0.299561 72.2128 0.404754 64.4709 2.21177 57.1162Z" fill="#FFEBBC"/>
<path fill-rule="evenodd" clip-rule="evenodd" d="M7.82568 108.331C29.7076 101.716 63.6567 91.63 71.4852 90.3222C83.2578 88.3597 109.508 88.6116 128.389 82.9632C135.889 80.7203 143.507 77.5908 149.964 74.6293C150.008 82.8635 148.684 90.9441 146.15 98.5735C131.886 103.371 105.697 111.708 94.0501 112.404C83.181 113.052 49.7825 125.075 27.9134 133.359C19.6438 126.696 12.7231 118.233 7.82568 108.331Z" fill="#F8E2AE"/>
<path fill-rule="evenodd" clip-rule="evenodd" d="M7.82568 108.331L11.1623 107.323C19.1288 116.746 29.4928 124.073 41.3123 128.365C36.5885 130.096 32.0453 131.794 27.9134 133.358C20.5473 127.406 14.3338 120.09 9.65261 111.793L9.54163 111.594C9.39365 111.331 9.25137 111.066 9.10624 110.803C8.66515 109.988 8.23831 109.165 7.82568 108.331ZM134.238 81.0533C139.765 79.1065 145.173 76.8252 149.948 74.6364L149.952 75.0007C149.952 79.4779 149.558 83.864 148.805 88.1263L148.733 88.5148C148.667 88.872 148.598 89.2264 148.528 89.5807C147.92 92.6348 147.126 95.6376 146.15 98.5721C139.429 100.832 130.067 103.876 120.821 106.54C126.901 99.1428 131.518 90.4987 134.238 81.0533Z" fill="#D2B07F"/>
<path fill-rule="evenodd" clip-rule="evenodd" d="M2.40605 75.0178C2.40605 75.0178 28.3573 66.2243 38.1052 63.0692C47.8517 59.9127 54.9432 45.9887 66.1908 41.5173C76.1023 37.5794 104.995 28.4557 127.54 21.4952C132.295 26.1559 136.439 31.4585 139.833 37.2834L110.615 55.0413L0.651677 84.2995C0.608992 83.9736 0.564897 83.6477 0.527903 83.319C0.36143 81.8133 0.241915 80.3176 0.166504 78.8247L2.40605 75.0178Z" fill="#6E271A"/>
<path fill-rule="evenodd" clip-rule="evenodd" d="M17.9497 123.618C32.0686 118.512 62.1475 107.676 68.2586 105.766C76.3091 103.256 92.3943 113.272 111.65 105.648C123.36 101.013 138.125 94.3511 148.608 89.4711C147.803 93.5811 146.657 97.5815 145.199 101.443L49.1385 145.383C37.0244 140.912 26.2733 133.38 17.9497 123.618Z" fill="#E0590F"/>
<path fill-rule="evenodd" clip-rule="evenodd" d="M17.9497 123.618L26.114 120.671C37.4356 128.226 51.0351 132.629 65.6648 132.629C70.6846 132.629 75.5849 132.111 80.3116 131.122L49.137 145.383C37.0244 140.912 26.2733 133.38 17.9497 123.618ZM125.756 99.7675C133.828 96.2666 142.013 92.5408 148.545 89.4968C147.74 93.6196 146.593 97.62 145.141 101.468L108.868 118.062C115.506 113.004 121.235 106.809 125.756 99.7675Z" fill="#B14623"/>
<path fill-rule="evenodd" clip-rule="evenodd" d="M32.0669 136.444C38.2136 133.726 69.3966 119.953 76.0043 117.292C83.3405 114.335 94.9467 120.222 110.036 113.75C119.282 109.785 135.532 102.208 146.734 96.9326C138.245 124.66 113.987 146.105 83.3405 149.525C64.4807 151.628 46.4803 146.536 32.0669 136.444Z" fill="#6E271A"/>
<path fill-rule="evenodd" clip-rule="evenodd" d="M32.0669 136.444C34.3321 135.444 39.9964 132.941 46.5785 130.046C52.6526 131.73 59.0526 132.629 65.6659 132.629C85.95 132.629 104.259 124.164 117.248 110.572C126.36 106.482 138.019 101.037 146.681 96.9582C138.557 123.528 116.074 143.828 88.282 148.803L88.2309 148.813C83.9296 149.58 79.5031 149.98 74.9856 149.98C70.1365 149.98 65.397 149.52 60.8055 148.642L60.696 148.619C60.2919 148.543 59.8892 148.46 59.4865 148.373L58.7751 148.221L58.3255 148.12C48.8052 145.94 39.9039 141.931 32.0669 136.444Z" fill="#481C0E"/>
<path fill-rule="evenodd" clip-rule="evenodd" d="M142.538 107.625C133.177 112.593 107.648 126.16 103.784 128.3C99.0372 130.93 88.6675 128.75 74.3024 136.459C68.7391 139.444 62.3619 143.661 56.635 147.707C50.5523 146.166 44.7372 143.875 39.3062 140.923C51.4516 134.653 69.0607 125.617 73.7746 123.54C81.1677 120.275 93.8665 124.921 101.984 121.208L145.2 101.44C144.403 103.547 143.512 105.609 142.538 107.625Z" fill="#DABD86"/>
<path fill-rule="evenodd" clip-rule="evenodd" d="M142.488 107.647C133.09 112.64 107.644 126.162 103.784 128.3C99.0372 130.93 88.6675 128.75 74.3024 136.459C68.7391 139.444 62.3619 143.661 56.635 147.707C50.5523 146.166 44.7372 143.875 39.3062 140.923C44.5394 138.222 50.7885 135.004 56.5809 132.054C59.5575 132.434 62.5882 132.628 65.6658 132.628C81.9061 132.628 96.8773 127.198 108.869 118.059L145.14 101.468C144.343 103.576 143.461 105.638 142.488 107.647Z" fill="#B58A5A"/>
<path fill-rule="evenodd" clip-rule="evenodd" d="M5.82959 103.873C20.1036 99.0246 51.3307 88.5489 63.6753 85.4707C79.9143 81.4219 104.172 87.3649 124.476 81.8303C133.765 79.2971 142.817 75.1316 149.907 71.3589C149.981 72.8532 150.011 74.3389 149.996 75.8176C140.236 81.271 125.848 88.4749 113.963 91.0238C93.8781 95.3302 87.1722 86.8426 54.9846 100.372C40.0092 106.67 25.3866 113.3 14.0266 118.594C10.7782 114.053 8.01792 109.126 5.82959 103.873Z" fill="#6E271A"/>
<path fill-rule="evenodd" clip-rule="evenodd" d="M5.82959 103.873L7.90268 103.169C11.3346 107.889 15.3271 112.176 19.7877 115.924C17.7886 116.844 15.8649 117.737 14.0252 118.594C10.7782 114.053 8.01792 109.126 5.82959 103.873ZM134.967 78.3081C140.406 76.1648 145.505 73.7014 149.864 71.3817C149.922 72.5814 149.954 73.7882 149.954 75.0007C149.954 75.2839 149.945 75.5643 149.941 75.8489C145.184 78.5045 139.337 81.5713 133.217 84.3123C133.886 82.3498 134.469 80.3446 134.967 78.3081Z" fill="#481C0E"/>
<path fill-rule="evenodd" clip-rule="evenodd" d="M7.5459 42.3455C18.7351 38.9727 32.0516 34.8769 37.0045 33.0282C46.1662 29.6085 49.1058 22.0616 59.7714 19.0702C67.1005 17.0166 91.9789 10.7946 106.841 7.10016C103.641 5.59591 100.321 4.31652 96.9091 3.27337C82.7006 6.61488 60.2182 11.8833 49.7148 14.2571C41.5761 16.0958 35.0993 15.5294 30.6984 14.5275C20.8338 21.777 12.8773 31.3504 7.5459 42.3455Z" fill="#E0590F"/>
<path fill-rule="evenodd" clip-rule="evenodd" d="M0.167969 78.8488C16.2632 74.4087 39.8326 67.7498 48.9459 64.3813C63.3551 59.0559 62.3007 50.1272 71.9135 46.6618C81.5276 43.1951 80.7266 43.4171 84.9823 42.2003C89.2366 40.985 98.9675 50.2553 108.658 46.5352C118.349 42.8151 115.176 35.3593 121.978 32.3053C125.28 30.8224 129.514 28.9638 132.992 27.4453C137.8 33.2943 141.75 39.9105 144.634 47.1158L2.39045 93.5484C1.54955 90.2296 0.919239 86.8156 0.527957 83.3161C0.361484 81.8204 0.244802 80.3332 0.167969 78.8488Z" fill="#E0590F"/>
<path fill-rule="evenodd" clip-rule="evenodd" d="M129.351 29.0392L132.958 27.4595C137.78 33.3356 141.727 39.9589 144.6 47.1272L136.12 49.8952C134.937 42.502 132.619 35.4888 129.351 29.0392Z" fill="#B14623"/>
<path fill-rule="evenodd" clip-rule="evenodd" d="M19.3368 59.5355C18.4731 62.4757 15.3898 64.1607 12.4502 63.2969C9.51064 62.4331 7.82598 59.3477 8.68965 56.4061C11.4315 47.1885 16.0785 38.7023 22.1569 31.3817C28.3135 23.97 35.93 17.7652 44.5069 13.2254C47.2189 11.7965 50.5754 12.8397 52.0039 15.5522C53.431 18.2633 52.3909 21.6218 49.679 23.0492C42.3641 26.9202 35.8888 32.1886 30.674 38.4675C25.5589 44.6268 21.6461 51.7752 19.3368 59.5355ZM64.8693 17.4236C61.8813 18.0953 58.9132 16.2168 58.2402 13.2282C57.57 10.2396 59.4482 7.27097 62.4348 6.60067C63.9046 6.27193 65.4469 5.97735 67.0604 5.72403C68.5928 5.4821 70.1437 5.28854 71.706 5.14623C74.7523 4.87156 77.4486 7.11869 77.7232 10.167C77.9978 13.2154 75.7512 15.9108 72.7048 16.1869C71.3745 16.3079 70.0569 16.473 68.755 16.6779C67.5001 16.8729 66.2025 17.1233 64.8693 17.4236Z" fill="#FFEBBC"/>
<path fill-rule="evenodd" clip-rule="evenodd" d="M99.8883 72.6924C106.035 72.6924 111.048 67.6787 111.048 61.5293C111.048 55.3814 106.036 50.3663 99.8883 50.3663C93.7402 50.3663 88.7275 55.38 88.7275 61.5293C88.7275 67.6787 93.7402 72.6924 99.8883 72.6924Z" fill="#E0590F"/>
<path fill-rule="evenodd" clip-rule="evenodd" d="M86.8876 77.9139C89.2239 77.9139 91.1262 76.0097 91.1262 73.6729C91.1262 71.3362 89.2239 69.432 86.8876 69.432C84.5512 69.432 82.6475 71.3376 82.6475 73.6729C82.6475 76.0083 84.5527 77.9139 86.8876 77.9139Z" fill="#E0590F"/>
<path fill-rule="evenodd" clip-rule="evenodd" d="M116.935 63.8946C118.238 63.8946 119.301 62.8315 119.301 61.5293C119.301 60.2257 118.238 59.1627 116.935 59.1627C115.632 59.1627 114.57 60.2257 114.57 61.5293C114.569 62.8315 115.632 63.8946 116.935 63.8946Z" fill="#E0590F"/>
<path fill-rule="evenodd" clip-rule="evenodd" d="M99.8882 67.2347C103.028 67.2347 105.591 64.6716 105.591 61.5293C105.591 58.387 103.028 55.824 99.8882 55.824C96.7452 55.824 94.1826 58.387 94.1826 61.5293C94.1826 64.6716 96.7452 67.2347 99.8882 67.2347Z" fill="#F6B879"/>
<path fill-rule="evenodd" clip-rule="evenodd" d="M87.992 61.9292C89.5628 61.9292 90.8434 60.6484 90.8434 59.0758C90.8434 57.5047 89.5642 56.2239 87.992 56.2239C86.4198 56.2239 85.1406 57.5047 85.1406 59.0758C85.1406 60.6484 86.4198 61.9292 87.992 61.9292Z" fill="#F6B879"/>
<path fill-rule="evenodd" clip-rule="evenodd" d="M107.463 55.4269C108.616 55.4269 109.555 54.4891 109.555 53.3363C109.555 52.185 108.616 51.2457 107.463 51.2457C106.314 51.2457 105.375 52.185 105.375 53.3363C105.376 54.4891 106.315 55.4269 107.463 55.4269Z" fill="#F6B879"/>
<path fill-rule="evenodd" clip-rule="evenodd" d="M90.139 113.348C94.6337 113.348 98.2989 109.68 98.2989 105.184C98.2989 100.688 94.6337 97.0208 90.139 97.0208C85.6428 97.0208 81.9761 100.688 81.9761 105.184C81.9747 109.68 85.6413 113.348 90.139 113.348Z" fill="#E0590F"/>
<path fill-rule="evenodd" clip-rule="evenodd" d="M105.96 104.511C107.883 104.511 109.454 102.941 109.454 101.013C109.454 99.0887 107.883 97.5175 105.96 97.5175C104.035 97.5175 102.462 99.0887 102.462 101.013C102.462 102.941 104.033 104.511 105.96 104.511Z" fill="#E0590F"/>
<path fill-rule="evenodd" clip-rule="evenodd" d="M56.9185 117.618C60.9465 117.618 64.2304 114.333 64.2304 110.304C64.2304 106.276 60.9465 102.989 56.9185 102.989C52.8904 102.989 49.6064 106.276 49.6064 110.304C49.6064 114.335 52.8904 117.618 56.9185 117.618Z" fill="#F8E2AE"/>
<path fill-rule="evenodd" clip-rule="evenodd" d="M66.4531 92.1409C70.4812 92.1409 73.768 88.8535 73.768 84.8246C73.768 80.7986 70.4812 77.5111 66.4531 77.5111C62.4279 77.5111 59.1411 80.7986 59.1411 84.8246C59.1411 88.8535 62.4279 92.1409 66.4531 92.1409Z" fill="#6E271A"/>
<path fill-rule="evenodd" clip-rule="evenodd" d="M53.2845 84.7179C54.3004 84.7179 55.1285 83.8896 55.1285 82.8735C55.1285 81.8574 54.3004 81.0305 53.2845 81.0305C52.2686 81.0305 51.4419 81.8574 51.4419 82.8735C51.4419 83.8896 52.2686 84.7179 53.2845 84.7179Z" fill="#6E271A"/>
<path fill-rule="evenodd" clip-rule="evenodd" d="M77.0726 82.633C78.0885 82.633 78.9166 81.8047 78.9166 80.7886C78.9166 79.7725 78.0885 78.9442 77.0726 78.9442C76.0567 78.9442 75.23 79.7725 75.23 80.7886C75.23 81.8047 76.0567 82.633 77.0726 82.633Z" fill="#6E271A"/>
<path fill-rule="evenodd" clip-rule="evenodd" d="M101.356 37.5851C105.951 37.5851 109.696 33.838 109.696 29.2441C109.696 24.6488 105.949 20.9031 101.356 20.9031C96.7649 20.9031 93.0186 24.6503 93.0186 29.2441C93.0186 33.838 96.7649 37.5851 101.356 37.5851Z" fill="#6E271A"/>
<path fill-rule="evenodd" clip-rule="evenodd" d="M101.357 33.7227C103.823 33.7227 105.836 31.7104 105.836 29.2441C105.836 26.7778 103.824 24.7669 101.357 24.7669C98.8898 24.7669 96.8794 26.7778 96.8794 29.2441C96.8794 31.7104 98.8913 33.7227 101.357 33.7227Z" fill="#F8E2AE"/>
<path fill-rule="evenodd" clip-rule="evenodd" d="M95.7167 40.2236C96.9688 40.2236 97.989 39.2032 97.989 37.9537C97.989 36.7028 96.9688 35.6824 95.7167 35.6824C94.4674 35.6824 93.4473 36.7028 93.4473 37.9537C93.4473 39.2032 94.4674 40.2236 95.7167 40.2236Z" fill="#F8E2AE"/>
<path fill-rule="evenodd" clip-rule="evenodd" d="M109.973 32.6184C110.598 32.6184 111.107 32.1089 111.107 31.4827C111.107 30.8565 110.598 30.3485 109.973 30.3485C109.349 30.3485 108.838 30.8565 108.838 31.4827C108.838 32.1089 109.349 32.6184 109.973 32.6184Z" fill="#F8E2AE"/>
<path fill-rule="evenodd" clip-rule="evenodd" d="M113.74 28.3362C115.327 28.3362 116.625 27.0397 116.625 25.45C116.625 23.8604 115.327 22.5639 113.74 22.5639C112.149 22.5639 110.854 23.8604 110.854 25.45C110.853 27.0397 112.147 28.3362 113.74 28.3362Z" fill="#6E271A"/>
<path fill-rule="evenodd" clip-rule="evenodd" d="M89.2707 31.403C90.1528 31.403 90.8728 30.6829 90.8728 29.802C90.8728 28.9211 90.1528 28.201 89.2707 28.201C88.3914 28.201 87.6729 28.9211 87.6729 29.802C87.6729 30.6829 88.3914 31.403 89.2707 31.403Z" fill="#6E271A"/>
</svg>
