<svg width="14" height="21" viewBox="0 0 14 21" fill="none" xmlns="http://www.w3.org/2000/svg">
<path d="M7.58057 0.379809C7.08528 -0.126603 6.246 -0.126603 5.75071 0.379809C3.94365 2.22614 0.0870375 7.68042 0 20.6422H13.3333C13.2442 7.68042 9.38763 2.22614 7.58057 0.379809Z" fill="#EC1919"/>
<path d="M7.4585 1.71381C7.4585 1.71381 7.66988 1.97982 7.95587 2.46061C8.24185 2.93944 8.61902 3.62911 8.97546 4.46656C9.72357 6.13753 10.4136 8.39175 10.9027 10.6539C11.3918 12.9179 11.6923 15.1879 11.8498 16.8924C12.001 18.5968 12.0632 19.7338 12.0632 19.7338H10.1588C10.1588 19.7338 10.2147 18.6027 10.2416 16.9061C10.2644 15.2096 10.2023 12.9455 9.9536 10.6854C9.70284 8.42523 9.25314 6.16706 8.68325 4.48821C8.41592 3.64682 8.11334 2.95323 7.8771 2.46849C7.64292 1.98572 7.4585 1.71381 7.4585 1.71381Z" fill="white"/>
<path d="M5.80029 1.71429C5.80029 1.71429 5.58909 1.98016 5.30337 2.46069C5.01765 2.93926 4.64082 3.62856 4.2847 4.46555C3.53726 6.1356 2.84782 8.38859 2.35919 10.6495C1.87056 12.9123 1.57034 15.1811 1.41299 16.8846C1.26184 18.5881 1.19974 19.7244 1.19974 19.7244H3.10247C3.10247 19.7244 3.04658 18.594 3.01966 16.8983C2.99689 15.2027 3.05899 12.9399 3.30744 10.681C3.55797 8.42206 4.00727 6.16512 4.57665 4.48719C4.84373 3.64625 5.14604 2.95304 5.38207 2.46857C5.61603 1.98606 5.80029 1.71429 5.80029 1.71429Z" fill="white"/>
</svg>
