<svg width="150" height="150" viewBox="0 0 150 150" fill="none" xmlns="http://www.w3.org/2000/svg">
<path fill-rule="evenodd" clip-rule="evenodd" d="M53.6441 3.12483C13.9484 14.9198 -8.6695 56.659 3.12548 96.356C14.919 136.052 56.6597 158.669 96.3539 146.875C136.052 135.081 158.67 93.3404 146.874 53.6448C135.079 13.9492 93.3397 -8.66871 53.6441 3.12483Z" fill="#A1B9A5"/>
<path fill-rule="evenodd" clip-rule="evenodd" d="M137.049 61.2629C137.049 100.678 105.093 132.632 65.6782 132.632C38.381 132.632 14.6672 117.309 2.66162 94.7963C11.3442 126.601 40.4417 149.98 74.9998 149.98C116.41 149.98 149.981 116.409 149.981 74.999C149.981 50.5267 138.257 28.7926 120.118 15.1062C130.679 27.5516 137.049 43.6644 137.049 61.2629Z" fill="#7B9186"/>
<path fill-rule="evenodd" clip-rule="evenodd" d="M19.8572 60.1457C18.9934 63.0844 15.9095 64.768 12.9693 63.9042C10.029 63.0417 8.3469 59.9564 9.20932 57.0148C11.9517 47.7971 16.6025 39.3109 22.6822 31.9903C28.8387 24.5772 36.4567 18.3723 45.0354 13.8339C47.7479 12.4051 51.1051 13.4454 52.5339 16.1593C53.9613 18.8718 52.921 22.229 50.21 23.6564C42.8936 27.5259 36.4183 32.7944 31.2011 39.0747C26.0806 45.2355 22.167 52.381 19.8572 60.1457ZM65.3991 18.0308C62.4105 18.7025 59.4419 16.8239 58.7716 13.8368C58.0984 10.8482 59.977 7.87952 62.9656 7.2078C64.4357 6.87905 65.9783 6.58446 67.5922 6.33114C69.1263 6.09063 70.6761 5.89566 72.2387 5.75335C75.2871 5.48011 77.9825 7.72724 78.2572 10.7742C78.5333 13.8225 76.2847 16.518 73.2378 16.7926C71.9071 16.915 70.5893 17.0787 69.2871 17.285C68.0305 17.4814 66.7326 17.7319 65.3991 18.0308Z" fill="#C5DCBD"/>
<path fill-rule="evenodd" clip-rule="evenodd" d="M63.7131 142.813C69.9977 142.813 75.121 137.688 75.121 131.405C75.121 125.122 69.9977 119.997 63.7131 119.997C57.4328 119.997 52.3081 125.122 52.3081 131.405C52.3081 137.688 57.4328 142.813 63.7131 142.813Z" fill="#7B9186"/>
<path fill-rule="evenodd" clip-rule="evenodd" d="M81.3184 126.783C85.0271 126.783 88.0513 123.759 88.0513 120.05C88.0513 116.343 85.0271 113.318 81.3184 113.318C77.6126 113.318 74.5884 116.343 74.5884 120.05C74.587 123.759 77.6111 126.783 81.3184 126.783Z" fill="#7B9186"/>
<path fill-rule="evenodd" clip-rule="evenodd" d="M48.1376 126.675C49.4497 126.675 50.5213 125.603 50.5213 124.288C50.5213 122.974 49.4497 121.903 48.1376 121.903C46.8226 121.903 45.751 122.974 45.751 124.288C45.751 125.603 46.8226 126.675 48.1376 126.675Z" fill="#7B9186"/>
<path fill-rule="evenodd" clip-rule="evenodd" d="M132.972 79.9842C140.225 79.9842 146.141 74.0697 146.141 66.8145C146.141 59.5608 140.225 53.6448 132.972 53.6448C125.717 53.6448 119.803 59.5608 119.803 66.8145C119.803 74.0697 125.719 79.9842 132.972 79.9842Z" fill="#7B9186"/>
<path fill-rule="evenodd" clip-rule="evenodd" d="M132.973 74.6659C137.296 74.6659 140.823 71.1394 140.823 66.8145C140.823 62.491 137.296 58.963 132.973 58.963C128.648 58.963 125.121 62.491 125.121 66.8145C125.123 71.1394 128.649 74.6659 132.973 74.6659Z" fill="#A1B9A5"/>
<path fill-rule="evenodd" clip-rule="evenodd" d="M121.811 93.6791C125.054 93.6791 127.698 91.0349 127.698 87.7901C127.698 84.5468 125.054 81.9012 121.811 81.9012C118.567 81.9012 115.92 84.5454 115.92 87.7901C115.92 91.0349 118.567 93.6791 121.811 93.6791Z" fill="#7B9186"/>
<path fill-rule="evenodd" clip-rule="evenodd" d="M134.751 50.8697C136.879 50.8697 138.615 49.1334 138.615 47.0058C138.615 44.8768 136.879 43.1406 134.751 43.1406C132.622 43.1406 130.886 44.8768 130.886 47.0058C130.886 49.1334 132.622 50.8697 134.751 50.8697Z" fill="#7B9186"/>
<path fill-rule="evenodd" clip-rule="evenodd" d="M112.907 128.638C119.963 128.638 125.717 122.885 125.717 115.829C125.717 108.774 119.963 103.021 112.907 103.021C105.851 103.021 100.098 108.774 100.098 115.829C100.099 122.885 105.853 128.638 112.907 128.638Z" fill="#A1B9A5"/>
<path fill-rule="evenodd" clip-rule="evenodd" d="M100.833 134.404C102.861 134.404 104.513 132.75 104.513 130.723C104.513 128.697 102.861 127.044 100.833 127.044C98.8075 127.044 97.1523 128.697 97.1523 130.723C97.1523 132.75 98.8075 134.404 100.833 134.404Z" fill="#A1B9A5"/>
<path fill-rule="evenodd" clip-rule="evenodd" d="M128.19 108.767C129.202 108.767 130.03 107.94 130.03 106.927C130.03 105.914 129.203 105.087 128.19 105.087C127.177 105.087 126.351 105.914 126.351 106.927C126.35 107.94 127.175 108.767 128.19 108.767Z" fill="#A1B9A5"/>
<path fill-rule="evenodd" clip-rule="evenodd" d="M118.498 102.81C119.811 102.81 120.882 101.738 120.882 100.426C120.882 99.1112 119.811 98.041 118.498 98.041C117.183 98.041 116.112 99.1112 116.112 100.426C116.113 101.738 117.185 102.81 118.498 102.81Z" fill="#7B9186"/>
<path fill-rule="evenodd" clip-rule="evenodd" d="M27.477 60.3705C28.7906 60.3705 29.8636 59.2989 29.8636 57.9868C29.8636 56.6718 28.7906 55.6002 27.477 55.6002C26.1649 55.6002 25.0933 56.6718 25.0933 57.9868C25.0933 59.2989 26.1649 60.3705 27.477 60.3705Z" fill="#C5DCBD"/>
<path d="M38.5046 101.383C46.4234 101.383 52.8428 94.9631 52.8428 87.0444C52.8428 79.1257 46.4234 72.7063 38.5046 72.7063C30.5859 72.7063 24.1665 79.1257 24.1665 87.0444C24.1665 94.9631 30.5859 101.383 38.5046 101.383Z" fill="#C5DCBD"/>
<path fill-rule="evenodd" clip-rule="evenodd" d="M38.5047 97.1173C44.0506 97.1173 48.5762 92.5918 48.5762 87.0444C48.5762 81.497 44.0506 76.9728 38.5047 76.9728C32.9558 76.9728 28.4331 81.497 28.4331 87.0444C28.4317 92.5918 32.9558 97.1173 38.5047 97.1173Z" fill="#A1B9A5"/>
<path fill-rule="evenodd" clip-rule="evenodd" d="M37.7161 69.0332C40.6563 69.0332 43.0557 66.6338 43.0557 63.6936C43.0557 60.7534 40.6563 58.3539 37.7161 58.3539C34.7745 58.3539 32.3765 60.7534 32.3765 63.6936C32.3765 66.6338 34.7745 69.0332 37.7161 69.0332Z" fill="#C5DCBD"/>
<path fill-rule="evenodd" clip-rule="evenodd" d="M87.9505 36.0335C90.8907 36.0335 93.2901 33.6341 93.2901 30.6939C93.2901 27.7536 90.8907 25.3528 87.9505 25.3528C85.0088 25.3528 82.6108 27.7536 82.6108 30.6939C82.6094 33.6355 85.0074 36.0335 87.9505 36.0335Z" fill="#C5DCBD"/>
<path fill-rule="evenodd" clip-rule="evenodd" d="M63.2929 27.8433C64.763 27.8433 65.9627 26.6436 65.9627 25.1735C65.9627 23.7034 64.763 22.5037 63.2929 22.5037C61.8228 22.5037 60.623 23.7034 60.623 25.1735C60.623 26.645 61.8242 27.8433 63.2929 27.8433Z" fill="#C5DCBD"/>
<path fill-rule="evenodd" clip-rule="evenodd" d="M83.8414 82.257C87.8603 82.257 91.1378 78.9795 91.1378 74.962C91.1378 70.943 87.8603 67.667 83.8414 67.667C79.8239 67.667 76.5464 70.943 76.5464 74.962C76.5464 78.9795 79.8253 82.257 83.8414 82.257Z" fill="#C5DCBD"/>
</svg>
